<svg width="55" height="16" viewBox="0 0 55 16" fill="none" xmlns="http://www.w3.org/2000/svg">
<path fill-rule="evenodd" clip-rule="evenodd" d="M9.03686 0.547302C9.01903 0.547302 9.00121 0.547302 8.98338 0.547302C6.58882 0.547302 4.28488 1.04595 2.05224 2.05191C1.14611 3.98382 0.635116 5.94774 0.608378 7.95166C0.572727 9.93958 1.0295 11.9755 2.04259 14.0521C4.37401 14.9614 6.70543 15.428 9.03686 15.4527C11.3683 15.428 13.6997 14.9614 16.0304 14.0521C17.0442 11.9755 17.501 9.93958 17.4653 7.95166C17.4386 5.94774 16.9276 3.98382 16.0215 2.05191C13.7888 1.04595 11.4849 0.547302 9.09033 0.547302C9.07251 0.547302 9.05468 0.547302 9.03686 0.547302Z" fill="#FEFEFE"/>
<path d="M1.67708 1.60993C4.02633 0.531311 6.46471 0 8.98478 0C9.00261 0 9.02043 0 9.03826 0C9.05608 0 9.07391 0 9.09173 0C11.6118 0 14.0502 0.531311 16.3994 1.60993L16.5435 1.74659C17.5024 3.77451 18.0498 5.84309 18.0765 7.94367C18.0765 7.98367 18.0765 8.01567 18.0765 8.05633V8.20099C18.0676 10.2209 17.5833 12.2815 16.5435 14.3741L16.3816 14.5107C13.9343 15.4847 11.4863 15.9753 9.03826 16C6.59023 15.9753 4.14219 15.4847 1.69491 14.5107L1.53299 14.3741C0.493171 12.2815 0.00891274 10.2209 0 8.20099V8.05633C0 8.01567 0 7.98367 0 7.94367C0.0267382 5.84309 0.574129 3.77451 1.53299 1.74659L1.67708 1.60993ZM9.03826 0.547311C9.02043 0.547311 9.00261 0.547311 8.98478 0.547311C6.59023 0.547311 4.28628 1.04596 2.05364 2.05191C1.14751 3.98383 0.636518 5.94775 0.60978 7.95167C0.574129 9.93959 1.03091 11.9755 2.04399 14.0521C4.37541 14.9614 6.70684 15.428 9.03826 15.4527C11.3697 15.428 13.7011 14.9614 16.0318 14.0521C17.0456 11.9755 17.5024 9.93959 17.4667 7.95167C17.44 5.94775 16.929 3.98383 16.0229 2.05191C13.7902 1.04596 11.4863 0.547311 9.09173 0.547311C9.07391 0.547311 9.05608 0.547311 9.03826 0.547311Z" fill="#003399"/>
<path fill-rule="evenodd" clip-rule="evenodd" d="M9.20114 12.4668C9.07562 10.9295 9.15657 9.32761 8.64558 7.86301C8.17023 6.49506 6.36763 5.71443 6.33198 4.20916C6.29633 3.03387 7.29158 1.67393 9.15658 1.67393C10.905 1.66593 11.9901 2.80855 12.1156 4.0805C12.2679 5.5531 10.2774 6.54306 9.75744 7.94367C9.21896 9.37628 9.37197 10.9615 9.20114 12.4668Z" fill="#003399"/>
<path fill-rule="evenodd" clip-rule="evenodd" d="M9.89069 12.0962C9.81865 10.7603 9.81865 9.48099 10.2316 8.3457C10.6884 7.05842 11.6391 5.9718 13.0918 5.61781C14.0871 5.37649 15.5481 6.42245 15.3156 7.49307C15.118 8.35437 14.1584 9.36832 12.6165 9.48099C11.899 9.53698 11.5945 10.0523 11.1459 10.3503C13.1542 10.173 14.4548 9.46499 15.3601 8.72435C15.4946 9.35166 15.5844 10.4063 15.0371 10.7683C13.9616 11.4522 12.9663 10.8969 11.7015 11.2189C10.9936 11.4042 10.5539 11.8069 9.89069 12.0962Z" fill="#003399"/>
<path fill-rule="evenodd" clip-rule="evenodd" d="M8.51868 12.0962C8.5989 10.7603 8.58998 9.48099 8.18668 8.3457C7.72916 7.05842 6.77921 5.9718 5.32644 5.61781C4.33118 5.37649 2.86058 6.42245 3.10271 7.49307C3.30027 8.35437 4.25914 9.36832 5.80178 9.48099C6.51034 9.53698 6.82378 10.0523 7.27238 10.3503C5.25439 10.173 3.96353 9.46499 3.05814 8.72435C2.92371 9.35166 2.83384 10.4063 3.38049 10.7683C4.4567 11.4522 5.45196 10.8969 6.71608 11.2189C7.42464 11.4042 7.85468 11.8069 8.51868 12.0962Z" fill="#003399"/>
<path fill-rule="evenodd" clip-rule="evenodd" d="M13.2966 14.0841V13.8668L13.4763 13.8268L13.2966 13.5854V13.1828L14.1039 14.1887L13.8172 14.2534L13.6197 14.0034L13.2966 14.0841ZM13.2966 13.1828V13.5854L13.1711 13.4241L13.1176 13.9074L13.2966 13.8668V14.0841L13.0909 14.1247L13.0545 14.4221L12.7678 14.4867L12.9564 13.1748L13.2431 13.1101L13.2966 13.1828ZM10.625 14.7847V14.5754H10.6874C10.7862 14.5674 10.8493 14.5594 10.876 14.5507C10.9117 14.5427 10.9473 14.5187 10.9659 14.4947C10.9926 14.4627 11.0016 14.4301 11.0016 14.3901C10.9926 14.3501 10.9837 14.3174 10.9563 14.2934C10.9384 14.2694 10.9028 14.2534 10.8671 14.2454C10.8315 14.2374 10.7505 14.2374 10.625 14.2454V14.0361C10.6963 14.0361 10.7416 14.0281 10.7594 14.0281C10.804 14.0201 10.8404 13.9954 10.8671 13.9714C10.8939 13.9474 10.9028 13.9154 10.8939 13.8748C10.8939 13.8348 10.876 13.8028 10.8493 13.7861C10.8315 13.7621 10.7951 13.7461 10.7416 13.7461C10.7238 13.7461 10.6874 13.7461 10.625 13.7541V13.5448C10.7238 13.5368 10.7951 13.5368 10.8404 13.5448C10.8939 13.5448 10.9473 13.5614 10.9926 13.5854C11.0372 13.6014 11.0729 13.6334 11.1093 13.6734C11.136 13.7141 11.1538 13.7621 11.1627 13.8188C11.1716 13.8748 11.1538 13.9314 11.1271 13.9794C11.1003 14.0281 11.055 14.0681 10.9926 14.1001C11.0818 14.1167 11.1538 14.1487 11.1984 14.1967C11.2526 14.2454 11.2793 14.3014 11.2883 14.3741C11.2883 14.4301 11.2793 14.4867 11.2615 14.5427C11.2348 14.5994 11.1984 14.6394 11.1538 14.6801C11.1003 14.7121 11.0461 14.736 10.9748 14.752C10.9295 14.76 10.8129 14.768 10.6428 14.7847H10.625ZM12.3192 14.1081L12.5977 14.1407C12.5799 14.2774 12.5345 14.3901 12.4543 14.4707C12.3734 14.5427 12.2568 14.5994 12.1134 14.6234C11.9337 14.6474 11.7725 14.6154 11.6381 14.5267C11.4947 14.4301 11.4138 14.2934 11.3692 14.1001C11.3328 13.8994 11.3603 13.7301 11.4583 13.6014C11.5482 13.4728 11.6916 13.3921 11.8802 13.3601C12.0503 13.3354 12.1847 13.3601 12.3102 13.4321C12.3823 13.4728 12.4447 13.5368 12.49 13.6334L12.23 13.7301C12.2033 13.6734 12.158 13.6254 12.1045 13.6014C12.0414 13.5694 11.979 13.5614 11.9069 13.5694C11.8082 13.5854 11.7369 13.6334 11.6826 13.7061C11.6292 13.7861 11.6203 13.8914 11.647 14.0361C11.6826 14.1887 11.7369 14.2934 11.8082 14.3501C11.8802 14.4061 11.9701 14.4301 12.0681 14.4141C12.1402 14.3981 12.1944 14.3661 12.2389 14.3174C12.2835 14.2694 12.3102 14.1967 12.3192 14.1081ZM10.625 13.5448V13.7541C10.5893 13.7541 10.553 13.7621 10.5084 13.7621L10.3472 13.7788L10.374 14.0601L10.5619 14.0441C10.5797 14.0441 10.6072 14.0441 10.625 14.0361V14.2454C10.625 14.2454 10.625 14.2454 10.6161 14.2454L10.4007 14.2614L10.4274 14.5914L10.625 14.5754V14.7847L10.1764 14.8247L10.0509 13.5934L10.5983 13.5534C10.6072 13.5448 10.6161 13.5448 10.625 13.5448ZM8.89444 14.3581V14.1487C8.95683 14.1487 8.99322 14.1407 9.01996 14.1327C9.05561 14.1247 9.08235 14.1001 9.10983 14.0761C9.12766 14.0441 9.13657 14.0121 9.13657 13.9794C9.14548 13.9314 9.12766 13.8994 9.10017 13.8668C9.07344 13.8348 9.03778 13.8188 8.99322 13.8108C8.96574 13.8108 8.939 13.8028 8.89444 13.8028V13.5934C9.02887 13.5934 9.10983 13.6014 9.15439 13.6174C9.23535 13.6334 9.29774 13.6734 9.35196 13.7381C9.40544 13.8028 9.43217 13.8828 9.42326 13.9794C9.42326 14.0521 9.40544 14.1167 9.3787 14.1727C9.3423 14.2207 9.30665 14.2614 9.26209 14.2934C9.20787 14.3174 9.16331 14.3334 9.10983 14.3501C9.05561 14.3581 8.98431 14.3581 8.89444 14.3581ZM8.89444 13.5934V13.8028C8.8677 13.8028 8.83131 13.8028 8.78674 13.8028L8.65231 13.7948V14.1487H8.79566C8.83131 14.1487 8.8677 14.1487 8.89444 14.1487V14.3581C8.87661 14.3581 8.84913 14.3581 8.82239 14.3581H8.6434L8.63448 14.8247L8.35596 14.8167L8.38344 13.5854L8.82239 13.5934C8.84913 13.5934 8.87661 13.5934 8.89444 13.5934ZM6.30306 14.2374V13.8588C6.38402 13.8748 6.43749 13.8748 6.46423 13.8748C6.50063 13.8668 6.52736 13.8588 6.5541 13.8348C6.57193 13.8108 6.58975 13.7861 6.59867 13.7461C6.60758 13.7061 6.59867 13.6734 6.58084 13.6414C6.56302 13.6094 6.52736 13.5934 6.48206 13.5774C6.46423 13.5694 6.40184 13.5614 6.30306 13.5448V13.3354L6.41967 13.3521C6.56302 13.3761 6.6618 13.4001 6.72419 13.4321C6.78732 13.4648 6.83188 13.5128 6.85862 13.5774C6.8861 13.6334 6.89501 13.7061 6.87719 13.7788C6.85862 13.8668 6.81406 13.9394 6.74276 13.9874C6.67962 14.0361 6.58084 14.0601 6.45532 14.0601C6.50954 14.1001 6.5541 14.1407 6.58084 14.1807C6.61649 14.2294 6.65289 14.3014 6.69745 14.4061L6.81406 14.6721L6.49097 14.6154L6.34762 14.3174C6.3298 14.2934 6.32089 14.2614 6.30306 14.2374ZM7.09184 13.4728L7.3607 13.4968L7.29832 14.1647C7.2894 14.2694 7.2894 14.3421 7.2894 14.3661C7.29832 14.4221 7.32505 14.4627 7.3607 14.4947C7.40601 14.5347 7.45949 14.5507 7.54045 14.5594C7.6214 14.5674 7.68379 14.5507 7.71944 14.5267C7.76475 14.5027 7.79149 14.4707 7.80931 14.4301C7.81823 14.3901 7.82714 14.3174 7.83605 14.2207L7.89918 13.5368L8.17696 13.5614L8.11457 14.2047C8.10566 14.3581 8.08709 14.4627 8.06035 14.5187C8.04253 14.5754 8.00688 14.6314 7.97048 14.6634C7.92592 14.7041 7.86353 14.736 7.79149 14.752C7.72836 14.7767 7.63923 14.7767 7.53153 14.768C7.3971 14.76 7.29832 14.736 7.23518 14.7041C7.17279 14.6721 7.11858 14.6314 7.08292 14.5914C7.04727 14.5427 7.02945 14.4947 7.02054 14.4467C7.01162 14.3741 7.01162 14.2694 7.02054 14.1327L7.09184 13.4728ZM4.91342 13.8348L4.96689 13.6334L5.54993 13.7701L5.40659 14.2454C5.33454 14.2854 5.24467 14.3094 5.11915 14.3174C5.00254 14.3254 4.89559 14.3174 4.7879 14.2934C4.64381 14.2614 4.52794 14.2047 4.44698 14.1327C4.35711 14.0521 4.30364 13.9554 4.2769 13.8508C4.25833 13.7381 4.25833 13.6254 4.29472 13.5128C4.33037 13.3921 4.39276 13.2874 4.48263 13.1988C4.56359 13.1188 4.67129 13.0701 4.79681 13.0461C4.89559 13.0221 5.01146 13.0301 5.13772 13.0621C5.29889 13.1021 5.42441 13.1588 5.49572 13.2474C5.56776 13.3274 5.60341 13.4321 5.5945 13.5448L5.31672 13.5288C5.31672 13.4648 5.29889 13.4081 5.25359 13.3601C5.20902 13.3194 5.15555 13.2794 5.07459 13.2634C4.95798 13.2394 4.8592 13.2474 4.76933 13.2954C4.6802 13.3441 4.61707 13.4401 4.5725 13.5694C4.52794 13.7141 4.53685 13.8268 4.58142 13.9154C4.63489 14.0034 4.71585 14.0601 4.82355 14.0841C4.88594 14.1001 4.94015 14.1001 5.00254 14.1001C5.06568 14.0921 5.11915 14.0761 5.17337 14.0601L5.21793 13.9074L4.91342 13.8348ZM6.30306 13.3354L5.83663 13.2634L5.60341 14.4787L5.87228 14.5187L5.97106 14.0121L6.03419 14.0201C6.09658 14.0281 6.14189 14.0441 6.16863 14.0521C6.19536 14.0681 6.21319 14.0921 6.23993 14.1167C6.24884 14.1407 6.27632 14.1807 6.30306 14.2374V13.8588C6.27632 13.8588 6.24884 13.8508 6.21319 13.8508L6.01637 13.8188L6.06984 13.5128L6.28523 13.5448C6.29415 13.5448 6.30306 13.5448 6.30306 13.5448V13.3354Z" fill="#003399"/>
<path fill-rule="evenodd" clip-rule="evenodd" d="M49.0385 11.8308V9.56092H50.1504V5.56909L49.0385 7.565V2.58321H53.405L54.5169 14.0601H50.1504V11.8308H49.0385ZM49.0385 2.58321V7.565L47.9267 9.56092H49.0385V11.8308H46.9403L46.0795 13.9394H43.3715V11.3155L46.3929 5.46443H45.7742L47.4959 2.58321H49.0385ZM43.3715 6.40639L44.7255 3.52517L43.3715 2.8492V6.40639ZM32.6027 5.30377C32.6658 4.97378 32.6658 4.65179 32.6027 4.34581V5.30377ZM43.3715 2.8492V6.40639L43.1925 6.79237C40.5202 5.07844 36.5748 6.63971 36.3505 8.4503C36.1269 10.3416 37.732 11.8708 41.8296 10.7282L40.4214 14.1081C35.0151 14.6474 32.9169 12.7241 32.6027 10.4789V9.20694C32.6837 8.61963 32.8537 8.04832 33.087 7.51701C35.7504 1.57725 40.0716 2.9132 41.713 2.80054L41.9551 2.14056L43.3715 2.8492ZM43.3715 11.3155L42.0175 13.9394H43.3715V11.3155ZM27.743 13.8667C30.6389 13.3521 33.4814 10.2289 30.63 7.74233C31.7419 7.21102 32.4326 6.25373 32.6027 5.30377V4.34581C32.4059 3.35585 31.554 2.55121 29.9489 2.52721L27.743 2.48655V4.69179H28.6573C29.6348 4.69179 29.5092 6.9617 28.2897 6.9617H27.743V8.70029C29.0614 8.92561 28.5949 10.5669 27.743 11.0742V13.8667ZM32.6027 9.20694V10.4789C32.5492 10.0602 32.5492 9.63358 32.6027 9.20694ZM23.9232 2.41455L22.1392 5.52109L22.9368 5.46443L20.7852 13.9394H26.9453C27.2142 13.9394 27.4742 13.9154 27.743 13.8667V11.0742C27.5908 11.1709 27.4199 11.2269 27.2499 11.2269H25.035L25.7703 8.67562H27.4289C27.5455 8.67562 27.6532 8.68362 27.743 8.70029V6.9617H26.2004L26.8191 4.69179H27.743V2.48655L23.9232 2.41455Z" fill="#003399"/>
</svg>
