<svg width="134" height="100" viewBox="0 0 134 100" fill="none" xmlns="http://www.w3.org/2000/svg">
<path d="M133.268 24.8547L133.101 23.7326L132.927 23.7726C131.74 18.2221 129.006 13.1211 125.041 9.05985C121.076 4.99856 116.042 2.14297 110.521 0.823482C105.001 -0.496006 99.2194 -0.225461 93.8462 1.60382C88.4731 3.4331 83.7278 6.74634 80.1592 11.1602C76.5906 15.574 74.3447 20.9081 73.6814 26.5452C73.018 32.1822 73.9643 37.8919 76.4107 43.0136C78.8572 48.1353 82.7038 52.4596 87.5054 55.4863C92.3071 58.5129 97.8676 60.1181 103.544 60.1162C105.033 60.1162 106.463 59.8891 107.885 59.6821C107.424 61.2317 106.95 62.8081 106.189 64.2242C105.427 66.2815 104.238 68.0649 103.056 69.8617C102.067 71.8055 100.324 73.1214 99.0416 74.7846C97.699 76.401 95.8688 77.4764 94.4193 78.819C92.9966 80.2218 91.133 80.9231 89.6501 81.9117C88.1004 82.8001 86.7512 83.782 85.3084 84.2495L81.7081 85.7324L78.5419 87.0483L81.7749 100L85.7626 99.0381C87.0384 98.7175 88.5947 98.3435 90.3648 97.8959C92.175 97.562 94.1054 96.6468 96.2562 95.8119C98.3736 94.8567 100.838 94.2222 103.123 92.6925C105.421 91.2364 108.072 90.0207 110.41 88.0703C112.675 86.0597 115.407 84.3163 117.424 81.7647C119.628 79.3734 121.806 76.8619 123.496 74.0031C125.453 71.2778 126.782 68.2853 128.185 65.3263C129.454 62.3672 130.476 59.3414 131.311 56.4024C132.894 50.511 133.602 44.9135 133.876 40.1242C134.103 35.3283 133.969 31.3406 133.689 28.455C133.595 27.2499 133.454 26.0489 133.268 24.8547ZM59.7924 24.8547L59.6254 23.7326L59.4517 23.7726C58.2648 18.2221 55.5306 13.1211 51.5654 9.05985C47.6002 4.99856 42.5662 2.14297 37.0457 0.823482C31.5252 -0.496006 25.744 -0.225461 20.3709 1.60382C14.9977 3.4331 10.2524 6.74634 6.68382 11.1602C3.11526 15.574 0.869367 20.9081 0.206006 26.5452C-0.457356 32.1822 0.488923 37.8919 2.93536 43.0136C5.38179 48.1353 9.22838 52.4596 14.0301 55.4863C18.8317 58.5129 24.3923 60.1181 30.0682 60.1162C31.5578 60.1162 32.9872 59.8891 34.41 59.6821C33.9491 61.2317 33.4748 62.8081 32.7133 64.2242C31.9519 66.2815 30.7629 68.0649 29.5806 69.8617C28.592 71.8055 26.8487 73.1214 25.5662 74.7846C24.2236 76.401 22.3934 77.4764 20.9439 78.819C19.5212 80.2218 17.6576 80.9231 16.1747 81.9117C14.625 82.8001 13.2758 83.782 11.833 84.2495L8.23269 85.7324C6.22214 86.554 5.07325 87.0349 5.07325 87.0349L8.30617 99.9866L12.2939 99.0248C13.5697 98.7042 15.126 98.3301 16.8961 97.8826C18.7063 97.5486 20.6367 96.6335 22.7875 95.7985C24.9049 94.8434 27.3697 94.2088 29.6541 92.6792C31.9519 91.223 34.6037 90.0073 36.9415 88.0569C39.2059 86.0464 41.9379 84.303 43.9551 81.7514C46.1593 79.3601 48.3369 76.8486 50.0268 73.9897C51.9839 71.2644 53.3132 68.272 54.7159 65.3129C55.985 62.3539 57.007 59.328 57.8419 56.389C59.425 50.4976 60.133 44.9001 60.4069 40.1109C60.634 35.3149 60.5004 31.3272 60.2199 28.4417C60.1201 27.2413 59.9775 26.0449 59.7924 24.8547Z" fill="white"/>
</svg>
