<svg width="19" height="21" viewBox="0 0 19 21" fill="none" xmlns="http://www.w3.org/2000/svg">
<path d="M18.4176 4.89998C18.4015 4.73193 18.3441 4.57084 18.2509 4.4318C18.1576 4.29276 18.0316 4.18031 17.8846 4.10498L10.1025 0.104984C9.96733 0.0354631 9.81829 -0.000732422 9.66717 -0.000732422C9.51605 -0.000732422 9.36701 0.0354631 9.23186 0.104984L1.44978 4.10498C1.30316 4.18074 1.17751 4.29332 1.0845 4.4323C0.99148 4.57127 0.934101 4.73214 0.917677 4.89998C0.906977 5.00698 -0.0171455 15.667 9.27272 19.914C9.39684 19.9716 9.53147 20.0014 9.66766 20.0014C9.80384 20.0014 9.93847 19.9716 10.0626 19.914C19.3525 15.667 18.4283 5.00798 18.4176 4.89998ZM9.66766 17.897C3.08304 14.625 2.77176 7.64198 2.82526 5.63498L9.66766 2.11798L16.5052 5.63298C16.5412 7.62198 16.1861 14.651 9.66766 17.897Z" fill="#2DD4BF"/>
<path d="M8.69489 10.586L6.46435 8.29303L5.08887 9.70703L8.69489 13.414L14.2464 7.70703L12.8709 6.29303L8.69489 10.586Z" fill="#2DD4BF"/>
</svg>
