<svg width="136" height="280" viewBox="0 0 136 280" fill="none" xmlns="http://www.w3.org/2000/svg">
<path d="M105.261 136.243C109.807 133.589 116.137 134.147 119.933 138.169C123.051 141.477 124 146.717 123.303 151.386C121.707 161.956 110.737 166.251 102.818 162.696C100.242 161.539 98.1118 159.748 96.3411 157.546C96.5514 148.982 98.7952 140.015 105.261 136.243ZM113.999 60.9527C107.571 59.3342 101.263 61.9045 95.9399 66.0293C87.6369 72.4584 82.5876 82.0155 80.2718 93.1526C74.813 119.449 81.4864 147.418 88.0823 172.535C88.359 173.593 88.6302 174.651 88.9013 175.708C86.9425 168.991 84.9753 162.28 83.3069 155.466C79.735 140.88 78.0446 125.554 77.8675 110.411C77.3805 68.9362 90.8851 29.3841 116.323 0.100708C116.367 0.0494385 116.306 -0.0371094 116.267 0.0173645C98.5462 19.8976 85.9685 44.9088 80.175 72.7083C74.3205 100.758 75.4134 130.929 82.1892 158.62C87.4543 180.144 95.7214 201.287 96.0783 223.994C96.2498 235.019 93.8787 245.534 89.6954 255.38C85.6006 265.01 79.3339 274.433 70.4083 278.289C69.8467 278.526 69.5894 278.997 69.5479 279.503C72.2205 278.933 74.8932 278.369 77.5659 277.814C85.8911 271.231 91.361 259.985 94.8443 249.329C95.8154 246.351 96.5597 243.342 97.1131 240.304C100.264 231.016 101.955 221.244 102.06 211.027C102.207 196.476 99.1771 181.91 96.9886 167.67C96.5652 164.895 96.2996 161.725 96.3273 158.456C98.1727 160.536 100.292 162.225 102.611 163.36C110.355 167.138 120.611 163.014 123.563 153.655C126.056 145.762 122.509 136.563 115.443 134.237C111.597 132.974 106.692 133.692 103.366 136.297C99.747 139.124 97.7467 143.585 96.6206 148.367C96.0008 151.002 95.6633 153.726 95.5249 156.472C91.8645 151.312 89.961 144.303 89.0812 137.868C89.0369 137.56 88.6025 137.566 88.6025 137.887C88.6247 144.826 91.2392 152.175 95.4917 157.459C95.3811 160.95 95.5886 164.465 95.9925 167.872C97.0965 177.26 98.964 186.506 99.9905 195.912C100.964 204.732 101.319 213.709 100.472 222.561C99.9739 227.74 98.964 232.791 97.5419 237.692C99.2241 226.16 98.2281 214.305 95.9289 202.78C95.4143 200.197 94.8333 197.636 94.2135 195.082C94.3242 195.044 94.4127 194.925 94.3906 194.774C91.4523 177.683 85.6255 161.389 82.4271 144.342C80.0698 131.775 78.6366 118.827 79.2758 105.956C79.9066 93.3192 83.0994 80.3874 91.3278 71.5514C96.817 65.6511 104.185 60.77 111.907 61.6417C122.761 62.8692 129.755 75.8172 129.833 87.6209C129.877 93.6333 128.068 99.4984 124.305 103.719C119.211 109.427 111.655 110.725 104.854 110.443C104.796 110.443 104.788 110.552 104.849 110.559C111.619 111.007 118.763 109.882 124.15 104.738C128.231 100.851 130.411 94.8801 130.679 88.8516C131.205 76.9068 124.545 63.6031 113.999 60.9527Z" fill="#18181B"/>
<path d="M63.9121 222.106C66.2279 219.292 69.7084 217.405 73.0092 218.895C76.1965 220.337 77.7154 223.661 75.7206 227.119C74.1463 229.859 71.1001 231.644 68.2725 231.519C64.6812 231.362 63.1319 227.612 62.5674 223.984C62.9963 223.305 63.45 222.67 63.9121 222.106ZM60.3595 186.31C80.6731 194.614 93.1982 222.311 89.9141 246.81C88.9457 254.063 86.2066 260.831 82.2833 266.549C84.375 262.812 85.9853 258.719 87.1584 254.486C90.7275 241.573 89.9805 224.824 81.279 214.735C76.8079 209.536 66.3219 206.979 62.869 215.007C61.8481 217.36 61.4773 220.651 61.8674 223.715C60.6556 225.76 59.8726 228.112 59.7564 230.423C59.3663 238.33 67.3733 238.99 72.2926 238.756C72.3286 238.749 72.3258 238.692 72.2871 238.698C68.101 239.047 61.7346 238.397 60.5007 232.673C59.9279 230.035 60.7635 227.218 62.0556 224.862C62.833 228.837 64.9939 232.16 68.8314 232.096C72.4503 232.035 76.6502 228.744 77.2229 224.43C77.9202 219.18 71.7033 216.933 68.2918 218.058C66.0535 218.802 63.9674 220.584 62.418 222.853C62.3931 222.606 62.3682 222.359 62.3544 222.119C61.8674 215.434 65.5389 210.61 71.3214 210.7C77.068 210.783 81.3592 215.219 84.1592 220.642C89.8089 231.599 89.0619 245.707 85.2382 257.232C83.4149 262.754 80.5984 267.799 77.104 272.093C76.4593 272.891 75.787 273.619 75.087 274.308C72.5886 276.375 69.9159 278.183 67.2128 280C68.8812 279.644 70.5495 279.289 72.2179 278.936C79.2731 274.507 85.0833 266.799 88.4726 258.716C93.4362 246.877 92.8966 233.339 89.5572 221.065C83.6806 199.473 68.2504 184.205 48.8305 181.23C12.7852 175.715 -25.0696 247.726 25.7502 255.396C-26.1182 242.502 18.8582 169.343 60.3595 186.31Z" fill="#18181B"/>
<path d="M82.2144 260.639C82.1812 260.645 82.1923 260.706 82.2255 260.697C82.2559 260.69 82.2448 260.636 82.2144 260.639Z" fill="#18181B"/>
<path d="M94.6483 126.804C93.7103 131.916 90.9519 132.894 90.5867 135.092C90.2934 136.326 90.2657 137.877 90.9021 140.137C91.2258 141.287 91.6629 142.509 92.1277 143.858C92.7392 142.867 93.251 141.813 93.6993 140.723C93.9898 140.021 94.2526 139.304 94.4767 138.57C94.153 138.124 93.9511 137.56 93.8182 137.326C93.1459 136.028 92.9495 135.025 92.706 134.115C92.6922 134.073 92.8499 134.064 92.8831 134.121C93.3755 134.858 93.7408 135.845 94.5293 136.874L94.8419 137.307C95.4838 134.73 95.8546 132.054 95.304 129.243C95.304 129.208 95.387 129.173 95.3953 129.208C96.0787 131.262 96.2751 133.471 96.1423 135.672C96.3969 135.326 96.6791 134.977 96.834 134.576C97.3431 133.455 97.57 132.128 97.4897 130.734C97.4869 130.689 97.581 130.682 97.5893 130.721C97.8522 132.298 97.6972 133.878 97.1715 135.192C96.8866 135.9 96.6154 136.65 96.0289 137.127C95.9293 137.932 95.8103 138.746 95.6498 139.557L95.8048 139.393C96.6182 138.509 97.5534 137.595 98.2395 136.377C98.2451 136.361 98.2921 136.384 98.2838 136.4C97.9573 137.608 97.6142 138.778 96.9142 139.691C96.3969 140.387 95.9293 141.271 95.1408 141.691L94.9913 142.22C94.6759 143.281 94.2941 144.323 93.8348 145.348C94.4352 145.172 95.0384 144.928 95.5419 144.537C97.3542 143.188 98.7126 141.053 99.2577 138.429C100.281 134.547 98.6573 128.048 94.6483 126.804Z" fill="#18181B"/>
<path d="M114.832 86.1755C118.024 88.8644 122.285 89.8772 125.55 86.496C127.296 84.7813 128.516 81.2238 127.393 78.3458C126.842 76.9164 125.857 75.9389 124.764 75.3204C124.861 76.487 124.792 77.6856 124.488 78.8298C124.283 79.5637 123.995 80.2816 123.61 80.929C123.84 81.4418 123.862 82.1308 123.873 82.4161C123.992 84.0987 123.303 85.3518 122.567 86.4607C122.531 86.5216 122.418 86.3966 122.443 86.3133C122.839 85.2172 123.265 83.9352 123.016 82.5603L122.899 81.9962C121.311 84.0442 119.117 85.3614 116.837 85.9447C116.81 85.9543 116.779 85.8518 116.807 85.8422C118.439 85.0922 119.967 83.9609 121.109 82.5026C120.747 82.5379 120.398 82.5571 120.072 82.6244C119.181 82.8359 118.331 83.0475 117.501 83.368C117.477 83.3808 117.443 83.2814 117.468 83.2686C118.337 82.7366 119.206 82.2975 120.155 81.9898C120.661 81.8071 121.148 81.5187 121.801 81.5027C122.152 80.9322 122.421 80.3265 122.625 79.7239L122.468 79.8009C121.668 80.272 120.658 80.304 119.839 80.4547L119.812 80.4034C120.395 79.9803 120.869 79.4964 121.48 79.1727C121.981 78.9099 122.282 78.4163 122.941 78.1151L122.96 77.7305C123.005 76.9645 122.797 76.2178 122.634 75.5319C122.21 75.9101 121.928 76.2434 121.621 76.4934C120.65 77.4004 120.08 77.5702 119.474 78.6214C118.497 80.2047 116.716 82.7879 114.832 86.1755Z" fill="#18181B"/>
<path d="M52.8562 163.187C53.2629 168.5 54.1815 173.116 55.7475 176.122C56.7546 177.814 57.6786 179.231 59.6596 180.811C60.5644 181.647 61.5936 182.474 62.7612 183.432C62.5648 181.811 62.4347 180.186 61.9201 178.667C61.7043 177.647 61.2782 176.721 60.8936 175.779C60.3513 175.673 59.8422 175.305 59.549 175.215C58.0688 174.651 57.2 173.773 56.1652 172.981C56.1099 172.936 56.2123 172.798 56.2814 172.827C57.2941 173.221 58.3454 173.859 59.6181 174.106L60.1604 174.215C58.5668 171.113 56.5194 168.411 54.5024 165.648C54.4803 165.613 54.5411 165.536 54.5771 165.571C56.2814 167.488 58.0743 169.311 59.7067 171.455C59.6043 170.917 59.4964 170.369 59.3249 169.863C58.849 168.392 58.1047 167.135 57.2802 165.914C57.2526 165.879 57.3273 165.812 57.3549 165.844C58.4229 167.094 59.4106 168.468 60.011 170.125C60.3762 170.975 60.7691 171.901 60.747 172.923C61.3418 173.737 61.8924 174.615 62.3545 175.58L62.3351 175.266C62.2438 173.567 62.0197 171.911 61.613 170.202C61.6047 170.183 61.6489 170.154 61.66 170.177C62.2908 171.568 63.0628 172.862 63.2537 174.468C63.4335 175.647 63.843 176.961 63.5442 178.215L63.7987 178.904C64.3991 180.279 64.5347 181.817 64.8971 183.333C65.2264 182.554 65.503 181.702 65.6552 180.772C66.1643 177.506 65.456 173.817 63.7711 171.077C61.1703 166.638 57.0589 163.975 52.8562 163.187Z" fill="#18181B"/>
<path d="M102.843 41.4219C98.4772 44.1269 94.673 45.489 91.9394 48.2772C90.4039 49.8188 89.0841 51.5495 87.8999 54.091C87.2802 55.3986 86.713 56.7479 86.002 58.2189C87.5181 57.7895 88.9596 57.078 90.3015 56.2063C91.1758 55.6454 92.0141 55.0172 92.8054 54.3314C92.8386 53.6808 93.0904 52.9436 93.154 52.6007C93.5469 50.7931 94.2331 49.4406 94.8832 48.0818C94.9192 48.0112 95.052 48.101 95.0382 48.1939C94.767 49.4791 94.2635 50.8732 94.1943 52.4661L94.1528 53.1167C96.7895 50.5527 99.1164 47.6331 101.133 44.3352C101.158 44.2903 101.238 44.3512 101.214 44.3993C99.8966 47.0882 98.3804 49.6201 96.6069 52.0046C97.0911 51.7738 97.5947 51.5623 98.018 51.2322C99.2769 50.3412 100.37 49.1811 101.335 47.8318C101.369 47.7837 101.435 47.8542 101.413 47.9055C100.45 49.5624 99.2464 51.0239 97.8575 52.1071C97.0967 52.6872 96.3136 53.3507 95.4061 53.5526C94.7145 54.3987 93.9757 55.2159 93.2038 55.9979L93.4722 55.9018C94.9662 55.3794 96.4935 54.8826 97.9377 54.0173C97.9571 54.0045 97.9765 54.0526 97.9654 54.0718C96.8338 55.1358 95.6939 56.203 94.3271 56.7992C93.3145 57.2767 92.1469 57.9593 91.0015 57.9625L90.4149 58.4145C89.2086 59.3022 87.8999 60.0586 86.4695 60.6387C87.2663 60.8694 88.1545 61.0617 89.0232 60.9688C92.1746 60.7733 95.1516 59.1516 97.4342 56.7415C100.981 52.9789 103.397 47.0658 102.843 41.4219Z" fill="#18181B"/>
<path d="M113.935 151.829C113.952 153.745 112.826 156.251 111.105 158.703C111.384 158.517 111.675 158.351 111.974 158.21C114.4 157.091 117.089 155.796 118.927 152.758C120.706 149.896 121.621 145.8 120.902 142.15C120.277 139.012 118.514 137.756 116.741 137.66L117.123 138.746C118.44 143.329 117.801 148.156 116.453 151.787C116.442 151.819 116.401 151.8 116.409 151.774C117.444 148.406 117.911 144.101 116.597 140.099C116.431 139.557 116.182 139.054 115.95 138.551C115.017 140.127 114.539 142.108 114.317 143.919C113.933 147.258 114.032 149.652 113.935 151.829Z" fill="#18181B"/>
<path d="M113.78 75.6954C113.941 77.41 113.492 79.5413 113.066 82.2014L113.573 81.5732C115.155 80.1438 116.992 78.958 118.661 76.9037C120.332 74.9454 121.524 71.8142 121.242 68.7728C121.007 66.1415 119.408 65.1576 117.789 65.1031L117.986 65.9909C118.68 69.7342 117.355 73.2693 116.204 75.8749C116.198 75.9005 116.16 75.8845 116.168 75.8589C117.009 73.3943 118.049 70.2951 117.297 67.0806C117.192 66.6639 117.056 66.2505 116.901 65.8563C115.736 67.1735 115.106 68.7183 114.572 70.0291C113.764 72.4392 113.672 73.7404 113.78 75.6954Z" fill="#18181B"/>
<path d="M69.9796 176.513C69.1357 174.667 67.6887 173.292 66.3164 172.676L66.6899 173.17C67.7385 174.625 67.946 176.593 67.8464 178.227C67.7966 179.875 67.2405 181.42 66.9998 182.878C66.7895 184.134 66.9777 184.987 67.5919 185.865L67.7717 185.307C68.6543 183.125 69.548 180.657 69.1136 177.865C69.1136 177.843 69.1274 177.833 69.1357 177.856C69.6448 180.391 69.0057 182.775 68.3721 184.977L68.1286 185.9C68.9061 185.721 69.844 184.951 70.2978 183.733C71.2219 181.589 71.0337 178.654 69.9796 176.513Z" fill="#18181B"/>
<path d="M90.1604 32.6531C89.4881 29.5379 88.445 26.6535 87.3024 24.2659L87.5292 25.3716C88.0687 28.4932 88.0826 31.6468 87.8529 34.5408C87.6952 37.4061 87.0644 40.2232 86.5609 42.941C86.1265 45.2677 85.9716 46.7196 86.4059 48.0753L86.7629 47.1138C88.4035 43.2999 89.3608 39.0822 89.1561 34.4319C89.1561 34.3934 89.1782 34.387 89.1782 34.4255C89.4826 38.688 88.7743 42.7038 87.4988 46.4952L86.9759 48.0464C87.8419 47.6234 89.1284 46.2997 89.7565 44.3095C91.0624 40.7584 90.9656 36.3003 90.1604 32.6531Z" fill="#18181B"/>
<path d="M130.621 68.5293C133.072 67.6287 134.981 65.491 136 63.5328L135.344 64.1161C133.499 65.8563 131.053 66.1608 129.05 65.9301C127.024 65.7794 125.146 64.7731 123.267 64.0456C121.646 63.4078 120.528 63.2411 119.474 63.7154L120.149 64.1353C122.808 65.9749 125.674 67.6992 129.193 67.4332C129.221 67.4332 129.221 67.4588 129.193 67.4588C125.976 67.8498 123.165 66.4621 120.528 64.9686L119.427 64.3629C119.645 65.3596 120.467 66.7666 121.845 67.6223C124.249 69.3145 127.766 69.7311 130.621 68.5293Z" fill="#18181B"/>
<path d="M121.801 136.602C123.381 137.057 124.751 138.384 126.261 139.582L125.843 138.916C124.914 136.89 123.713 135.057 122.092 133.58C120.506 132.092 118.268 131.272 116.035 131.442C114.104 131.596 113.141 132.733 112.746 133.756L113.454 133.56C116.373 132.836 119.178 133.576 121.552 134.961C121.569 134.97 121.563 134.99 121.544 134.983C119.33 133.826 116.768 133.205 114.159 133.906L113.122 134.259C113.894 134.922 114.989 135.102 116.129 135.381C118.18 135.711 120.036 135.929 121.801 136.602Z" fill="#18181B"/>
<path d="M57.4712 188.839C55.9882 190.073 54.8759 191.675 54.104 193.265L54.5965 192.839C56.0131 191.714 57.7174 191.227 59.2695 191.025C60.8106 190.778 62.324 191.086 63.5802 191.201C64.6398 191.32 65.2983 191.137 66.1173 190.432L65.6193 190.214C63.7157 189.095 61.1952 188.631 58.7715 189.627C58.7494 189.631 58.7466 189.611 58.7632 189.602C60.9379 188.573 63.3062 188.743 65.3232 189.512L66.1615 189.81C66.0149 188.935 65.2596 187.727 64.0228 187.326C61.7873 186.426 59.1561 187.362 57.4712 188.839Z" fill="#18181B"/>
<path d="M113.083 171.545C107.154 174.314 103.922 180.192 102.926 187.451C101.911 194.845 103.217 203.024 102.755 210.639C103.065 207.168 103.073 203.614 103.04 199.992C102.968 192.727 102.907 185.064 106.119 178.939C109.641 172.218 118.409 168.401 125.287 172.612C128.038 174.295 130.049 177.378 130.312 180.849C130.597 184.692 128.408 188.22 125.976 190.297C122.042 193.646 116.467 193.223 112.64 188.692C112.414 188.416 112.106 188.801 112.331 189.073C116.555 194.22 122.653 194.275 126.903 190.538C130.735 187.172 132.741 180.397 128.986 175.208C124.936 169.613 118.088 169.212 113.083 171.545Z" fill="#18181B"/>
<path d="M116.779 182.23C115.78 183.153 115.108 184.958 115.551 186.913C115.982 188.839 117.396 190.461 118.995 191.114C120.75 191.887 122.797 191.618 124.191 190.307C124.894 189.647 125.342 188.778 125.58 187.894C124.806 188.291 123.967 188.522 123.104 188.618C122.556 188.676 121.986 188.672 121.433 188.586C121.209 188.845 120.805 189.041 120.644 189.102C119.72 189.573 118.716 189.4 117.742 188.993C117.69 188.964 117.714 188.858 117.773 188.871C118.591 189.038 119.502 189.06 120.199 188.579L120.484 188.381C118.608 187.884 116.812 186.195 116.611 183.996C116.611 183.968 116.66 183.961 116.666 183.99C116.995 185.557 118.118 186.772 119.424 187.272C119.256 187.019 119.092 186.791 118.954 186.557C118.506 185.948 118.21 185.31 117.977 184.711C117.966 184.692 118.022 184.666 118.033 184.685C118.365 185.307 118.802 185.881 119.327 186.509C119.621 186.846 119.994 187.121 120.296 187.557C120.786 187.663 121.297 187.701 121.795 187.688L121.668 187.602C120.993 187.214 120.487 186.535 120.058 186.006C120.052 185.999 120.066 185.974 120.072 185.977C120.559 186.285 121.09 186.525 121.646 186.83C122.069 187.096 122.617 187.169 123.09 187.493L123.406 187.403C124.025 187.224 124.59 186.906 125.082 186.567C124.72 186.422 124.413 186.33 124.084 186.23C122.963 185.951 121.961 185.605 120.982 185.394C119.507 184.897 118.022 184.852 116.779 182.23Z" fill="#18181B"/>
<path d="M124.734 184.134C124.12 184.503 123.334 184.615 122.462 184.766L122.775 184.865C123.591 185.256 124.443 185.618 125.417 185.66C126.358 185.733 127.454 185.394 128.234 184.58C128.931 183.9 128.948 183.118 128.768 182.561L128.558 182.859C127.639 184.044 126.386 184.57 125.229 184.801V184.785C126.261 184.503 127.373 183.996 128.165 182.916L128.455 182.458C127.941 182.407 127.443 182.634 126.945 182.849C126.09 183.294 125.453 183.746 124.734 184.134Z" fill="#18181B"/>
<path d="M128.856 189.047C128.594 190.038 128.115 190.957 127.595 191.945L127.894 191.672C128.787 191.028 129.639 190.284 130.342 189.326C131.061 188.403 131.623 187.16 131.739 185.778C131.839 184.602 131.399 183.894 130.929 183.57L130.954 184.025C130.995 185.884 130.364 187.474 129.664 188.929C129.656 188.935 129.642 188.932 129.653 188.922C130.245 187.563 130.774 186.089 130.705 184.423L130.638 183.759C130.237 184.176 130.01 184.826 129.772 185.499C129.41 186.717 129.177 187.894 128.856 189.047Z" fill="#18181B"/>
<path d="M84.3113 242.845C84.5603 246.473 83.6168 250.697 82.9141 253.547C82.867 253.739 82.6291 253.652 82.6623 253.463C83.224 250.422 83.9018 247.175 83.6473 244.044C83.5311 242.595 83.2848 241.413 82.8726 240.397C82.7398 246.409 78.3655 251.566 79.6742 257.761C79.8043 258.489 78.8525 258.671 78.7003 257.96C77.0375 248.685 71.5455 241.945 63.1539 241.262C59.2251 240.945 55.3184 241.656 51.5584 243.002C53.9461 242.64 56.3338 242.592 58.6136 243.031C64.2744 244.115 68.1202 248.406 70.0127 254.585C70.0431 254.7 69.8744 254.774 69.8328 254.662C65.929 243.445 57.0892 242.826 48.5288 244.794C51.0908 244.39 53.6169 244.746 55.9326 246.451C61.8756 250.842 61.4219 261.876 68.3748 264.642C68.9696 264.879 68.8866 265.959 68.2613 266.065C64.4958 266.706 60.0026 265.719 57.3326 262.806C58.1461 264.543 59.2168 266.107 60.769 267.421C63.7709 269.975 67.2598 271.199 70.9589 270.203C71.1692 270.148 71.266 270.52 71.0502 270.587C66.5874 271.943 60.8077 269.578 57.4959 265.248C58.1959 267.623 59.2002 269.853 60.5642 271.731C62.0942 273.859 64.0614 275.683 66.438 276.343C68.906 277.02 71.0668 276.321 73.4601 275.968C78.3047 272.654 82.1394 266.392 83.9295 260.742C85.75 255.008 86.3393 248.412 84.3113 242.845Z" fill="#18181B"/>
<path d="M8.35559 210.293C5.88211 214.482 3.83194 219.097 2.81378 224.068C2.6118 225.045 2.44026 226.039 2.29639 227.035C6.57103 221.891 11.4073 215.949 11.9358 208.87C11.9662 208.46 12.5196 208.309 12.6551 208.726C14.2267 213.559 14.5006 221.366 12.2844 226.785C13.9417 224.67 15.1009 222.01 15.4606 219.158C16.0748 214.318 15.2559 209.386 17.2922 204.909C17.3365 204.809 17.414 204.793 17.4914 204.809C18.5622 201.098 21.5779 198.479 23.3542 195.278C23.3735 195.252 23.3985 195.278 23.3902 195.303C21.4119 199.242 17.8456 202.431 17.6242 207.287C17.5468 208.895 17.7598 210.373 18.1057 211.796C18.125 211.831 18.1361 211.876 18.1555 211.911C18.1693 209.264 19.2843 206.386 20.4159 204.213C21.8601 201.45 23.8328 199.201 25.3905 196.54C26.5719 194.534 27.2415 192.489 27.5569 190.278C20.1503 195.268 13.178 202.104 8.35559 210.293Z" fill="#18181B"/>
<path d="M14.8105 192.9C10.6465 194.249 4.93866 195.701 2.94106 200.758C1.99759 203.149 1.59366 205.947 0.863234 208.453C3.10707 204.034 4.98569 198.848 8.97259 197.162C9.04176 197.133 9.09434 197.246 9.02517 197.281C4.43789 199.524 2.63118 207.136 0.0165897 211.607C0.0165897 211.613 0.011067 211.623 0 211.629C0.849395 211.261 1.67667 210.822 2.52883 210.466C2.88574 210.322 3.40311 210.677 3.19561 211.171C0.337544 217.908 -0.401191 225.545 0.81895 232.702C0.484172 227.856 1.05968 222.943 2.33515 218.305C5.30665 207.476 11.4267 197.326 19.8957 191.416C18.1361 191.973 16.3515 192.4 14.8105 192.9Z" fill="#18181B"/>
<path d="M74.8741 150.444C70.9342 139.294 67.5698 127.615 66.9058 115.51C66.2833 104.11 68.8536 93.8193 72.9207 83.7975C69.7666 87.9703 67.4011 92.5629 65.8268 98.1203C63.7988 105.27 62.8276 112.959 63.6272 120.462C63.6438 120.654 63.4003 120.728 63.3699 120.529C62.2715 113.036 62.8414 105.046 64.6952 97.7677C64.875 97.0723 65.0715 96.3608 65.2817 95.6397C58.6111 108.725 55.8194 124.199 67.0774 135.153C67.2766 135.349 67.3291 135.733 67.094 135.932C60.7691 141.364 56.998 133.304 53.5396 128.061C47.3974 118.744 37.4481 118.42 29.2419 123.225C32.4957 122.189 36.0648 122.035 38.9699 122.523C45.0346 123.548 50.4602 127.051 52.8728 133.839C52.9005 133.913 52.8036 133.971 52.7704 133.894C50.214 127.266 44.4342 123.523 38.2782 123.305C36.4438 123.234 34.6316 123.404 32.8498 123.789C33.9011 123.763 34.9608 123.865 36.0205 124.109C41.4489 125.375 45.8176 129.759 48.9219 134.916C52.7096 141.204 55.172 148.582 61.9865 151.22C66.4936 152.96 70.7046 153.973 72.099 159.889C72.1627 160.171 71.9441 160.398 71.7366 160.463C69.5951 161.097 67.7027 160.648 66.1505 159.402C66.9252 160.975 67.6611 162.597 68.7595 163.934C70.5718 166.138 72.752 167.549 75.2144 168.558C75.3278 168.61 75.2697 168.802 75.1563 168.767C71.4073 167.539 67.6279 164.655 65.3481 160.751C66.0094 163.507 67.1936 166.139 68.6765 168.302C70.4251 170.85 72.3287 172.395 74.733 173.971C77.746 175.942 82.1922 178.42 82.3858 183.019C82.3969 183.301 82.1921 183.544 81.9404 183.432C80.4546 182.791 79.1321 181.769 77.7321 181.003C78.623 181.849 79.4088 182.884 80.1116 184.035C82.3554 187.711 84.1731 191.634 86.5332 195.22C89.4909 199.707 91.9699 204.373 93.4362 209.783C93.5525 210.193 93.6604 210.61 93.771 211.033C91.3584 189.64 81.957 170.497 74.8741 150.444Z" fill="#18181B"/>
<path d="M66.0675 193.717C66.3607 195.595 66.9196 197.338 67.8658 198.941C68.1425 199.409 67.8105 200.165 67.2765 199.915C64.2109 198.476 61.0734 197.463 57.7506 198.191C54.9229 198.813 52.2364 200.082 49.4143 200.713C44.6693 201.777 40.0572 201.434 36.1173 198.479C36.1145 198.553 36.1117 198.63 36.109 198.704C36.1809 198.912 36.2611 199.111 36.3442 199.316C38.2311 201.45 39.988 203.203 42.9872 203.662C45.7124 204.072 48.4072 203.764 51.1021 203.207C51.1629 203.197 51.174 203.3 51.1159 203.319C47.4804 204.328 42.4366 205.011 38.6489 203.155C39.3074 203.828 40.0572 204.367 40.9398 204.751C41.5097 204.883 42.0658 205.053 42.6053 205.267C43.2528 205.53 43.0286 206.822 42.3314 206.649C42.2789 206.639 42.2235 206.623 42.1737 206.607V206.617C42.1543 206.604 42.1322 206.597 42.1101 206.591C41.8223 206.517 41.5429 206.421 41.2579 206.319C30.6557 203.296 26.0629 216.754 21.1768 224.997C20.0618 226.885 18.7559 228.923 17.3006 230.689C18.8997 229.077 20.3717 227.269 21.7191 225.753C24.1815 222.978 26.3202 219.994 28.6 217.026C30.4039 214.674 32.5675 212.014 35.3232 211.241C38.7208 210.293 41.7753 212.001 45.1452 212.142C49.8598 212.331 52.7649 208.815 56.3036 205.848C58.7715 203.78 61.5687 202.226 64.6813 202.204C68.1646 202.184 71.2662 203.886 74.3982 205.45C74.4258 205.469 74.4092 205.524 74.3788 205.508C70.2093 203.537 65.2153 201.973 60.8134 203.937C57.0561 205.62 54.5411 209.286 51.0384 211.424C47.8815 213.357 44.9737 213.158 41.5429 212.408C37.3125 211.488 33.9758 212.104 30.8715 215.828C28.3372 218.872 26.2842 222.372 23.6531 225.314C21.8768 227.301 20.1752 229.381 18.3021 231.253C17.663 231.9 16.5369 233.019 15.2283 234.089C15.8508 233.916 16.4733 233.714 17.0765 233.464C20.1946 232.198 23.2131 230.455 25.919 228.25C31.1426 223.991 34.7533 216.526 41.4461 215.209C41.8472 215.132 42.2263 215.709 41.933 216.113C39.003 220.209 37.4315 229.109 33.8375 233.423C34.1944 233.295 34.5513 233.157 34.9054 232.993C38.9781 231.045 41.2662 227.654 43.5848 223.497C47.0792 217.219 50.5902 212.517 57.319 211.552C57.4379 211.536 57.4739 211.751 57.3522 211.77C53.2906 212.479 49.8432 214.466 47.3254 218.292C45.2642 221.43 43.8614 225.08 41.8057 228.205C39.7943 231.266 37.1659 233.452 34.0118 234.679C33.1873 235.003 32.2992 235.339 31.3806 235.657C33.0351 235.858 34.7007 235.769 36.322 235.31C39.4042 234.445 43.1587 232.775 45.0511 229.635C47.8207 225.023 48.5815 218.135 53.6585 215.972C54.1981 215.741 54.721 216.382 54.389 216.981C52.657 220.097 53.5728 223.6 52.5408 226.894C52.3554 227.494 52.1285 228.026 51.8602 228.497C52.8451 228.019 53.7637 227.372 54.6158 226.365C56.5111 224.119 57.4877 221.401 57.5071 218.257C57.5071 218.196 57.5929 218.193 57.5984 218.254C57.9249 221.869 56.6134 225.737 54.353 228.41C54.8482 228.109 55.3241 227.76 55.7585 227.356C57.9027 225.346 58.9347 222.709 59.6181 219.68C60.4703 215.876 60.924 211.902 63.89 209.485C67.2323 206.764 72.7741 206.38 76.4538 208.312C79.7823 210.072 82.1589 212.882 84.281 216.103C83.8605 215.209 83.3929 214.325 82.8534 213.469C80.7147 210.046 78.2578 206.418 75.3333 203.848C71.9053 200.838 67.7911 198.287 66.0675 193.717Z" fill="#18181B"/>
</svg>
