<svg width="151" height="200" viewBox="0 0 151 200" fill="none" xmlns="http://www.w3.org/2000/svg">
<path d="M133.044 196.32C141.792 192.289 148.379 184.063 150.126 172.854C151.709 162.723 148.533 152.423 143.062 144.729C142.755 144.302 142.237 144.884 142.527 145.317C151.142 158.238 151.863 176.993 141.326 188.699C135.899 194.73 128.141 196.987 120.976 197.841C114.131 198.646 106.628 198.242 100.184 195.197C88.3152 189.582 81.4848 174.635 77.809 160.83C73.1186 143.251 73.5968 124.729 74.3699 106.532C75.4096 82.0246 75.9015 57.3854 66.6295 34.7865C62.4514 24.6023 56.1523 15.8636 48.0877 9.85826C43.3535 6.33324 38.2286 4.05656 32.9468 2.29897C43.9526 6.37263 53.9541 13.2979 61.0865 24.7666C70.9983 40.6965 74.0593 61.5445 74.1828 80.9667C74.3068 100.303 71.801 119.558 72.9417 138.908C73.8083 153.606 77.1868 168.501 84.1012 180.831C88.8307 189.26 95.572 195.831 103.871 198.357C112.973 201.13 124.292 200.355 133.044 196.32Z" fill="#18181B"/>
<path d="M26.4103 0.866679C26.3236 0.876535 26.2334 0.892948 26.1494 0.902803C27.6915 1.33645 29.234 1.7931 30.7522 2.29902C29.324 1.7701 27.8725 1.30361 26.4103 0.866679Z" fill="#18181B"/>
<path d="M108.691 166.146C113.599 163.876 117.294 159.266 118.271 152.975C119.162 147.292 117.379 141.513 114.312 137.203C114.139 136.96 113.846 137.288 114.008 137.531C118.844 144.775 119.25 155.298 113.335 161.868C110.29 165.255 105.937 166.514 101.918 166.993C98.0796 167.447 93.8686 167.22 90.2561 165.508C83.5963 162.361 79.7658 153.977 77.7017 146.234C75.0694 136.375 75.3399 125.981 75.772 115.77C76.1832 106.02 76.4378 96.2397 74.6977 86.8604C74.6541 87.0641 74.5874 87.2579 74.5139 87.4517C75.3004 92.0773 75.6381 96.8179 75.668 101.427C75.7347 112.275 74.3334 123.077 74.969 133.931C75.4538 142.183 77.3541 150.534 81.2308 157.453C83.8877 162.18 87.6672 165.87 92.3238 167.286C97.424 168.843 103.78 168.406 108.691 166.146Z" fill="#18181B"/>
<path d="M38.0348 124.538C39.7072 124.052 41.661 124.515 43.4705 124.479C39.2861 126.953 34.7965 128.405 30.4713 130.376C33.0438 128.477 35.0275 125.412 38.0348 124.538ZM14.993 121.516C17.0108 121.398 19.0444 120.08 21.2021 121.815C21.711 122.222 22.1719 122.571 22.6067 122.863C20.0916 122.692 17.5592 122.245 14.993 121.516ZM60.3463 110.208C65.8934 102.196 69.5058 92.4781 71.038 82.2447C74.1459 61.4723 69.5094 39.1854 58.7678 22.4768C49.1644 7.53893 34.4816 -1.02237 18.6927 0.0978851C18.6365 0.104462 18.6296 0.209595 18.6927 0.209595C55.9544 -2.02435 77.8489 47.5758 69.1849 87.0213C66.549 95.599 61.8222 103.283 55.7942 109.187C50.5056 114.381 44.2334 118.063 37.7303 120.501C32.6457 122.406 27.7447 123.178 22.7946 122.876C22.7079 122.817 22.6204 122.755 22.5332 122.692C21.711 122.055 20.9711 120.954 19.9813 120.655C17.977 120.064 16.0945 121.355 14.1643 121.28C13.6891 121.132 13.214 120.984 12.7361 120.826C12.5517 120.76 12.4851 121.053 12.6488 121.148C26.5311 128.987 44.3305 120.895 55.6436 110.268C60.8055 105.419 65.0169 99.2095 67.8669 92.1463C67.352 93.8809 66.7792 95.5991 66.1342 97.2811C63.5245 104.095 59.6942 110.179 55.048 115.195C52.091 118.389 48.7454 121.092 45.2435 123.372C42.5605 124.134 39.7472 123.031 37.0916 124.282C34.1208 125.685 31.8329 128.885 29.134 131.007C28.695 131.221 28.2566 131.437 27.8182 131.677C27.5313 131.822 27.7115 132.351 28.0026 132.282C40.0421 129.46 52.4525 121.615 60.3463 110.208Z" fill="#18181B"/>
<path d="M37.1249 95.2311C35.0309 95.2803 32.9405 94.9025 30.8994 94.3703C30.7024 94.3211 30.5046 94.2586 30.3104 94.1995C32.2011 94.0977 34.1182 93.1614 36.1247 92.5931C38.9281 91.798 41.7214 93.5819 44.4908 93.9071C42.0989 94.712 39.6439 95.1818 37.1249 95.2311ZM46.073 94.7416C50.459 93.053 54.5631 90.4051 58.0518 86.7979C64.2546 80.3819 67.278 70.9139 67.5793 61.2685C68.2116 40.828 57.544 19.5234 42.5741 9.97653C41.1895 9.08952 39.7341 8.34374 38.2659 7.6867C38.2083 7.66042 38.1819 7.76558 38.2387 7.79186C54.2753 15.5318 65.5656 36.5342 66.6589 56.9025C67.1845 66.6596 64.8732 76.4725 59.2427 83.7032C56.1759 87.6455 52.2485 90.4347 48.1071 92.4354C47.6356 92.6653 47.1604 92.8723 46.682 93.0825C43.5746 93.4439 40.8545 92.3302 37.6536 92.0477C34.6863 91.7816 32.2483 93.9597 29.5316 93.9334C28.6852 93.6279 27.8455 93.3158 26.9687 93.168C26.8222 93.076 26.6683 92.9807 26.5144 92.869C26.4936 92.8526 26.4713 92.892 26.4936 92.9084C26.5975 92.9938 26.7018 93.0628 26.8085 93.1384C26.6211 93.1121 26.4305 93.0957 26.2398 93.0858C25.9421 93.076 25.8722 93.4899 26.076 93.6903C28.4211 95.9768 32.301 96.3448 35.2314 96.6174C38.938 96.9624 42.5606 96.0951 46.073 94.7416Z" fill="#18181B"/>
<path d="M105.256 34.6814C106.049 33.5907 107.311 32.9172 108.474 32.1748C107.223 32.8844 105.893 33.5053 105.256 34.6814Z" fill="#18181B"/>
<path d="M104.208 44.7834C108.247 41.4358 112.548 34.2773 111.53 28.0354C111.478 27.72 111.078 27.6937 110.998 28.0091C110.801 28.8468 110.642 29.6714 110.493 30.4796C109.969 31.1695 109.245 31.6852 108.474 32.1747C109.218 31.7608 109.928 31.3009 110.461 30.6767C110.041 33.0092 109.681 35.2431 108.617 37.5099C107.585 39.7307 106.126 41.5968 104.469 43.1572C105.591 41.2879 104.913 38.9719 104.875 36.3568C104.867 35.6834 105.009 35.1413 105.256 34.6814C105.207 34.7504 105.152 34.8161 105.108 34.8883C104.664 35.5848 104.691 36.5079 104.771 37.3227C105.031 39.9147 105.457 42.1519 103.668 43.8833C103.509 44.0179 103.355 44.1559 103.191 44.2841C103.114 44.3465 103.04 44.4089 102.955 44.4614C102.952 44.4647 102.952 44.4713 102.944 44.4713C102.7 44.6651 102.455 44.859 102.209 45.0397C97.1388 48.7027 90.7681 49.3794 85.1281 47.52C78.4716 45.3123 73.3835 38.87 68.9077 32.9369C67.4295 30.9724 66.0071 28.9421 64.6094 26.8954C63.8936 26.5176 63.2514 25.9493 62.6487 25.2758C69.1387 35.8279 76.2132 46.8367 86.8715 49.1363C92.9088 50.4405 99.1414 48.9786 104.208 44.7834Z" fill="#18181B"/>
<path d="M128.865 52.6416C130.319 51.1173 132.473 50.6902 134.133 49.5765C134.166 49.5601 134.188 49.5371 134.218 49.5174C131.611 52.75 128.813 55.5457 125.582 57.7206C126.764 56.1798 127.56 54.0082 128.865 52.6416ZM137.12 46.4884C137.266 46.2387 136.945 45.9004 136.769 46.1402C136.209 46.9286 135.641 47.6941 135.071 48.4398C133.299 49.9609 131.153 50.3847 129.23 52.0306C127.31 53.6699 126.407 56.5313 124.685 58.2987C123.392 59.1036 122.032 59.8099 120.589 60.4079C114.38 62.9736 107.607 62.875 101.237 61.2817C88.3832 58.0523 76.6513 48.5187 68.8137 35.9954C68.777 35.9429 68.7166 36.0184 68.7504 36.071C76.7316 49.2907 89.0049 59.4157 102.482 62.4381C115.519 65.3718 129.414 59.8296 137.12 46.4884Z" fill="#18181B"/>
<path d="M93.6676 89.9386C89.5164 83.5325 86.4257 76.2721 83.4752 69.0052C81.6484 64.5144 79.9157 59.9643 78.0258 55.5063C76.196 51.1797 74.0114 47.1257 71.6162 43.2492C78.6417 60.3388 81.6221 79.5935 89.4228 96.302C93.5475 105.126 99.2232 113.737 107.393 117.38C111.947 119.407 117.288 120.307 122.108 119.236C127.049 118.145 130.358 115.12 133.438 111.352C126.992 115.222 119.826 117.242 112.614 115.327C101.596 112.406 93.7848 101.782 88.5093 90.415C88.2487 89.8565 88.9507 89.4425 89.239 89.9583C97.0752 104.173 110.567 107.334 123.694 105.491C123.593 105.488 123.502 105.487 123.403 105.484C117.971 105.553 112.567 104.945 107.44 102.485C101.975 99.8632 97.2809 95.5038 93.6676 89.9386Z" fill="#18181B"/>
<path d="M128.24 121.096C129.609 120.14 131.965 120.994 133.502 120.921C133.636 120.912 133.765 120.895 133.886 120.872C130.898 122.157 127.9 123.208 124.819 123.845C125.977 123.093 126.94 122.015 128.24 121.096ZM136.401 120.11C136.563 120.008 136.432 119.732 136.264 119.808C136.031 119.913 135.792 120.021 135.562 120.126C135.633 120.087 135.702 120.041 135.773 120.005C135.779 119.998 135.773 119.982 135.762 119.985C133.397 121.217 131.208 120.12 128.786 120.554C128.448 120.616 127.815 121.01 127.543 121.25C126.289 122.38 125.192 123.412 123.818 124.042C121.541 124.446 119.225 124.621 116.838 124.479C110.973 124.128 105.349 121.641 100.472 117.781C89.6136 109.187 83.5692 93.9302 81.1869 79.0514C81.1805 79.0153 81.1333 79.0252 81.1372 79.0646C83.398 94.331 89.339 109.239 100.205 118.277C110.828 127.114 125.11 127.278 136.401 120.11Z" fill="#18181B"/>
<path d="M111.42 65.5985C113.066 65.6708 114.306 66.3475 115.664 66.5479C112.732 66.9881 109.802 67.09 106.905 66.8666C108.345 66.4329 109.744 65.5229 111.42 65.5985ZM118.185 66.088C117.475 66.2391 116.764 66.3639 116.065 66.4855C114.512 66.3738 113.069 65.6708 111.429 65.3652C109.217 64.9546 107.588 66.5775 105.533 66.7352C94.1699 65.4309 83.499 59.0445 75.9419 48.2099C75.9188 48.177 75.8853 48.2164 75.9084 48.246C86.0001 63.1674 102.477 70.7365 118.224 66.3081C118.345 66.2785 118.303 66.065 118.185 66.088Z" fill="#18181B"/>
<path d="M21.7911 68.933C23.3065 70.142 23.5806 72.3365 24.5709 73.9397C21.9387 71.7222 19.6603 68.9888 17.9602 65.812C18.9937 67.0571 20.3788 67.8127 21.7911 68.933ZM59.9751 72.1624C65.3913 63.1346 66.1205 50.9662 62.846 40.759C62.8361 40.7262 62.792 40.7426 62.8021 40.7755C65.4212 49.4681 65.0668 58.9262 61.7618 67.1196C55.2922 82.629 38.3193 83.6934 26.6309 75.5231C26.6282 75.4903 26.6177 75.4541 26.5843 75.4377C26.4471 75.372 26.3264 75.2965 26.2062 75.2209C25.9725 75.0566 25.7415 74.8858 25.5135 74.7084C23.8343 73.1906 23.7775 70.8516 22.2624 69.0283C21.7576 68.4107 21.0078 68.0263 20.376 67.6353C19.0041 66.7779 17.9435 65.7332 17.1841 64.245C16.9704 63.7785 16.763 63.2923 16.5724 62.7995C16.5189 62.6648 16.3518 62.7765 16.3982 62.9079C23.3597 82.3071 50.3821 88.0858 60.4371 70.0171C60.2568 70.3752 60.0793 70.73 59.8821 71.0848C57.5637 75.257 54.2552 78.5225 50.5083 80.6973C46.0498 83.2861 41.2725 83.2105 36.4596 82.8064C36.2415 82.7867 36.1781 83.1777 36.3891 83.2467C45.398 86.2329 54.7032 80.9667 59.9751 72.1624Z" fill="#18181B"/>
<path d="M89.045 78.8149C89.2795 79.2814 89.5234 79.7348 89.7739 80.198C89.5402 79.7282 89.3127 79.265 89.0949 78.7886C89.0749 78.7459 89.0285 78.7821 89.045 78.8149Z" fill="#18181B"/>
<path d="M129.919 96.8441C130.051 96.7258 129.9 96.4696 129.76 96.5681C122.452 101.736 114.655 101.92 106.921 97.9578C103.38 96.1378 99.9259 93.4735 96.8862 90.2507C106.076 100.586 119.135 107.147 129.919 96.8441Z" fill="#18181B"/>
<path d="M89.7739 80.198C91.6337 83.8708 94.0868 87.294 96.8861 90.2507C94.1062 87.1265 91.6745 83.654 89.7739 80.198Z" fill="#18181B"/>
<path d="M139.178 100.773C140.138 97.3271 143.43 97.1859 144.755 94.5873C143.523 100.136 140.078 104.108 135.954 106.917C137.639 105.359 138.412 103.539 139.178 100.773ZM126.547 111.818C134.404 109.693 143.674 104.065 145.369 93.6969C145.422 93.375 145.01 93.214 144.955 93.536C144.914 93.7922 144.865 94.0419 144.813 94.2949C143.627 96.5682 140.774 96.8442 139.49 99.2161C138.895 100.317 138.665 101.739 138.311 102.961C137.636 105.317 136.113 106.279 134.654 107.751C131.996 109.358 129.14 110.527 126.465 111.345C122.325 112.62 116.924 113.48 111.898 112.794C116.74 113.671 121.867 113.083 126.547 111.818Z" fill="#18181B"/>
<path d="M111.898 112.794C108.313 112.14 104.889 110.675 101.904 108.086C104.546 110.865 108.11 112.271 111.898 112.794Z" fill="#18181B"/>
<path d="M101.525 107.764C101.648 107.882 101.777 107.974 101.904 108.086C101.788 107.961 101.673 107.846 101.561 107.718C101.525 107.685 101.492 107.738 101.525 107.764Z" fill="#18181B"/>
<path d="M1.86748 104.039C2.79337 104.84 3.96752 105.241 5.24538 105.747C8.28996 106.956 8.53714 110.494 10.2295 112.846C7.07219 110.58 4.25887 107.623 1.86748 104.039ZM41.7143 114.867C36.2819 117.321 30.3241 118.313 24.6769 117.991C19.6596 117.712 15.0164 116.092 10.9181 113.333C9.20981 111.25 8.95879 108.175 6.86122 106.368C5.02481 104.801 2.81009 104.949 1.30481 103.198C1.01374 102.741 0.729261 102.258 0.448341 101.775C0.415695 101.693 0.374815 101.618 0.341621 101.526C0.331744 101.499 0.308427 101.519 0.308427 101.545C0.284834 101.496 0.25493 101.453 0.231337 101.414C0.143824 101.259 -0.0600098 101.381 0.0170787 101.542C4.78394 111.667 13.9062 117.216 23.3263 118.379C29.7214 119.17 35.9472 117.764 41.7143 114.867Z" fill="#18181B"/>
<path d="M41.7144 114.867C44.7683 113.48 47.6515 111.628 50.2177 109.279C47.5349 111.48 44.6849 113.372 41.7144 114.867Z" fill="#18181B"/>
<path d="M51.0035 108.553C50.7495 108.802 50.4817 109.036 50.2175 109.279C50.4957 109.055 50.7725 108.832 51.0408 108.602C51.0735 108.579 51.0331 108.526 51.0035 108.553Z" fill="#18181B"/>
<path d="M60.3778 48.7388C59.9989 39.8983 56.6975 31.6951 51.5024 25.4368C42.1061 14.1094 27.5847 7.50608 14.2407 10.039C14.6119 10.2591 14.9732 10.5318 15.3249 10.8636C17.6499 13.0515 18.7171 16.777 20.286 19.6482C22.9992 24.6319 27.0297 26.856 31.1873 29.7108C32.6591 30.726 33.9435 31.8626 35.0713 33.1603C34.2382 29.6714 33.1008 26.4519 31.204 23.4196C29.4247 20.5615 27.4108 17.9563 25.4309 15.3052C25.3069 15.1376 25.4073 14.8551 25.5977 14.8715C32.7227 15.5483 33.8736 24.241 37.928 29.6517C41.7514 34.7504 48.4512 37.3391 49.0575 44.6585C50.1582 40.7031 50.1812 37.2504 48.5289 33.1899C47.2606 30.0624 45.6953 27.1122 44.6684 23.8467C44.5848 23.5741 44.7518 23.193 45.0369 23.3211C50.1475 25.6963 53.597 29.8521 53.1517 36.7511C52.7537 42.9437 50.6125 48.8899 51.8174 55.1088C52.5562 58.9262 54.2554 65.2601 53.62 69.6262C58.3501 64.2877 60.7418 57.1489 60.3778 48.7388Z" fill="#18181B"/>
<path d="M106.642 103.03C90.8415 97.9578 83.9002 77.6354 78.6621 61.1075C78.6547 61.0911 78.631 61.1043 78.642 61.1273C81.3547 69.9941 84.0909 79.1401 88.6803 86.9096C90.9054 90.6778 93.4405 94.0287 96.4281 96.9426C99.2784 99.7285 102.867 102.708 106.611 103.231C106.705 103.24 106.732 103.063 106.642 103.03Z" fill="#18181B"/>
<path d="M125.488 116.299C125.568 116.266 125.543 116.125 125.461 116.148C120.421 117.452 115.84 118.106 110.751 116.66C106.743 115.53 103.064 113.165 99.8268 110.172C93.3132 104.16 89.0851 95.0865 86.3149 85.9865C86.308 85.9733 86.3022 85.9766 86.3022 85.9865C89.0547 95.3329 93.2292 104.055 99.717 110.376C106.776 117.249 116.816 119.946 125.488 116.299Z" fill="#18181B"/>
<path d="M55.8143 64.5111C58.5637 58.0458 60.4344 51.5969 59.4005 44.284C58.3967 37.1978 54.7241 30.9263 50.6022 25.9098C45.5514 19.7533 39.5435 16.34 33.0911 14.244C38.958 16.317 44.4713 19.5496 49.1644 24.5826C53.6067 29.333 57.1122 35.4172 58.7884 42.2767C60.6813 50.0692 58.5305 57.3953 55.5397 64.2975C55.4467 64.5209 55.7208 64.7312 55.8143 64.5111Z" fill="#18181B"/>
<path d="M17.6826 11.3859C17.6897 11.4056 17.6958 11.4221 17.6999 11.4385C22.1919 12.0692 26.6411 12.8675 30.8963 14.244C26.621 12.7427 22.1625 11.8688 17.6826 11.3859Z" fill="#18181B"/>
<path d="M31.1398 29.2213C28.7684 21.9347 23.443 16.3794 17.9033 12.3747C17.9069 12.3977 17.9137 12.4306 17.9206 12.4569C23.3459 16.57 28.6112 22.1449 30.9359 29.3494C30.9864 29.5235 31.1933 29.3921 31.1398 29.2213Z" fill="#18181B"/>
<path d="M46.8959 40.7886C44.8118 32.1189 41.6004 23.9585 35.4254 18.4623C30.3776 13.9747 23.9686 12.4405 17.793 11.8689C17.7998 11.8787 17.8029 11.8952 17.8029 11.8952C23.8147 12.5292 29.6983 14.116 34.8062 18.1732C41.3162 23.3507 44.6412 32.1321 46.6449 40.851C46.688 41.0481 46.9461 40.9791 46.8959 40.7886Z" fill="#18181B"/>
<path d="M128.865 52.6416C127.559 54.0083 126.764 56.1798 125.581 57.7206C128.813 55.5458 131.611 52.7501 134.217 49.5174C134.187 49.5371 134.165 49.5601 134.132 49.5765C132.473 50.6902 130.319 51.1173 128.865 52.6416Z" fill="#18181B"/>
<path d="M5.24557 105.747C3.96772 105.241 2.79356 104.84 1.86768 104.039C4.25906 107.623 7.07238 110.58 10.2297 112.846C8.53734 110.494 8.29016 106.956 5.24557 105.747Z" fill="#18181B"/>
<path d="M115.664 66.548C114.306 66.3476 113.066 65.6708 111.42 65.5985C109.744 65.523 108.345 66.4329 106.905 66.8666C109.802 67.09 112.731 66.9882 115.664 66.548Z" fill="#18181B"/>
<path d="M33.93 92.5931C31.9235 93.1614 30.0064 94.0977 28.1157 94.1995C28.31 94.2587 28.5077 94.3211 28.7047 94.3704C30.7458 94.9026 32.8362 95.2804 34.9302 95.2311C37.4492 95.1818 39.9042 94.712 42.2962 93.9072C39.5267 93.5819 36.7334 91.7981 33.93 92.5931Z" fill="#18181B"/>
<path d="M104.469 43.1572C106.126 41.5967 107.585 39.7307 108.617 37.5099C109.681 35.2431 110.041 33.0091 110.46 30.6766C109.928 31.3008 109.218 31.7607 108.474 32.1747C107.311 32.9171 106.049 33.5906 105.256 34.6813C105.009 35.1413 104.867 35.6833 104.875 36.3568C104.913 38.9718 105.591 41.2879 104.469 43.1572Z" fill="#18181B"/>
<path d="M15.7656 65.812C17.4657 68.9888 19.7441 71.7221 22.3763 73.9396C21.386 72.3365 21.1119 70.1419 19.5965 68.933C18.1842 67.8127 16.799 67.0571 15.7656 65.812Z" fill="#18181B"/>
<path d="M128.24 121.096C126.94 122.015 125.977 123.093 124.819 123.845C127.9 123.208 130.898 122.157 133.886 120.872C133.765 120.895 133.636 120.912 133.502 120.921C131.966 120.994 129.609 120.14 128.24 121.096Z" fill="#18181B"/>
<path d="M139.178 100.773C138.412 103.539 137.639 105.359 135.954 106.917C140.078 104.108 143.523 100.136 144.755 94.5872C143.43 97.1858 140.138 97.3271 139.178 100.773Z" fill="#18181B"/>
<path d="M19.0074 121.815C16.8497 120.08 14.8161 121.398 12.7983 121.516C15.3645 122.245 17.8969 122.692 20.412 122.863C19.9772 122.571 19.5163 122.222 19.0074 121.815Z" fill="#18181B"/>
<path d="M28.2769 130.376C32.602 128.405 37.0916 126.953 41.276 124.479C39.4665 124.515 37.5127 124.052 35.8403 124.538C32.833 125.412 30.8493 128.477 28.2769 130.376Z" fill="#18181B"/>
<path d="M105.256 34.6814C106.049 33.5907 107.311 32.9172 108.474 32.1748C107.223 32.8844 105.893 33.5053 105.256 34.6814Z" fill="#18181B"/>
<path d="M101.525 107.764C101.648 107.882 101.777 107.974 101.904 108.086C101.788 107.961 101.673 107.846 101.561 107.718C101.525 107.685 101.492 107.738 101.525 107.764Z" fill="#18181B"/>
<path d="M41.7144 114.867C44.7683 113.48 47.6515 111.628 50.2177 109.279C47.5349 111.48 44.6849 113.372 41.7144 114.867Z" fill="#18181B"/>
<path d="M51.0035 108.553C50.7495 108.802 50.4817 109.036 50.2175 109.279C50.4957 109.055 50.7725 108.832 51.0408 108.602C51.0735 108.579 51.0331 108.526 51.0035 108.553Z" fill="#18181B"/>
<path d="M100.183 195.197C106.628 198.242 114.131 198.646 120.975 197.841C128.141 196.987 135.899 194.73 141.326 188.699C148.332 180.916 150.351 170.019 148.398 159.792C148.392 160.788 148.299 161.79 148.107 162.808C147.237 167.328 144.889 171.152 143.342 175.361C141.877 179.365 140.566 183.679 138.393 187.233C136.344 190.568 133.507 192.306 130.256 193.479C129.899 193.61 129.784 193.002 130.05 192.789C132.969 190.387 134.462 187.105 134.522 183.232C131.995 188.728 126.215 191.856 121.384 193.643C113.549 196.534 104.913 196.964 97.8295 191.251C97.6183 191.077 97.7308 190.709 97.9749 190.709C101.854 190.696 105.105 190.062 108.145 187.664C105.017 189.027 101.629 189.763 98.3563 188.873C94.6815 187.874 91.514 185.351 88.9339 182.109C85.9541 178.36 83.5791 173.981 81.391 169.536C80.4879 167.7 79.5585 165.87 78.7012 163.991C82.5548 176.849 89.219 190.013 100.183 195.197Z" fill="#18181B"/>
<path d="M77.7013 146.234C79.7654 153.977 83.5959 162.361 90.2557 165.508C93.8682 167.22 98.0792 167.447 101.917 166.993C105.936 166.514 110.29 165.255 113.335 161.868C119.148 155.406 118.849 145.127 114.249 137.893C116.633 142.233 117.76 147.867 116.287 152.893C114.649 158.494 110.534 161.241 105.752 161.711C95.3002 162.736 79.1832 160.147 78.0895 144.263C78.0763 144.046 78.2705 143.767 78.4571 143.954C80.7725 146.224 83.0871 149.036 85.9273 150.36C88.4898 151.556 90.5734 150.968 92.6847 149.762C91.5569 150.15 90.3723 150.291 89.1523 150.071C85.8973 149.493 83.0168 146.963 81.4715 143.461C79.3407 138.619 79.7286 133.202 79.5813 127.906C79.4211 122.232 77.3038 116.841 77.6747 111.155C77.6944 110.819 78.0895 110.698 78.2228 111.01C78.501 111.68 78.7824 112.327 79.0828 112.965C78.668 111.194 78.4143 109.453 78.2165 108.185C77.3932 103.024 76.9688 97.8297 75.5538 92.9446C76.3167 100.438 76.0992 108.109 75.7716 115.77C75.3395 125.981 75.069 136.375 77.7013 146.234Z" fill="#18181B"/>
<path d="M26.4103 0.866679C26.3236 0.876535 26.2334 0.892948 26.1494 0.902803C27.6915 1.33645 29.234 1.7931 30.7522 2.29902C29.324 1.7701 27.8725 1.30361 26.4103 0.866679Z" fill="#18181B"/>
<path d="M74.0991 88.8808C74.0991 88.8249 74.1024 88.7625 74.1024 88.7034C74.0859 88.7625 74.0788 88.8184 74.0991 88.8808Z" fill="#18181B"/>
</svg>
