<svg width="177" height="144" viewBox="0 0 177 144" fill="none" xmlns="http://www.w3.org/2000/svg">
<path d="M43.0735 126.221L42.9299 126.163C34.8608 130.922 50.4784 131.423 43.0735 126.221Z" fill="#18181B"/>
<path d="M39.3456 116.325C37.0461 117.91 42.4458 126.317 42.4458 126.317C42.4458 126.317 42.7281 123.826 42.1149 120.212C41.6744 117.61 40.4577 115.559 39.3456 116.325Z" fill="#18181B"/>
<path d="M45.2295 115.133C43.8059 114.6 41.5137 120.233 43.8181 126.542C43.8181 126.542 47.6167 116.022 45.2295 115.133Z" fill="#18181B"/>
<path d="M34.7026 122.075C34.4666 123.389 35.9485 124.592 37.866 125.691C39.5573 126.658 41.6086 126.865 41.6086 126.865C40.0853 122.022 34.9411 120.752 34.7026 122.075Z" fill="#18181B"/>
<path d="M50.3761 119.656C49.0353 118.927 46.6311 121.008 45.7283 123.22C44.8231 125.431 44.6138 127.11 44.6138 127.11C45.4241 126.128 46.3561 125.394 48.371 124.181C52.1452 122.404 51.3933 120.21 50.3761 119.656Z" fill="#18181B"/>
<path d="M44.7866 127.332C44.7866 127.332 46.5922 128.681 49.0767 128.354C52.1087 127.958 53.525 125.828 52.7439 124.604C51.661 122.908 49.8992 124.4 48.6873 125.534C46.765 127.326 44.7866 127.332 44.7866 127.332Z" fill="#18181B"/>
<path d="M175.704 35.2391C175.307 35.5596 174.891 35.8393 174.465 36.0987C173.074 36.9467 171.533 37.4391 169.973 37.5586C166.771 37.8005 163.659 36.2473 161.546 33.4265C162.092 33.5489 162.649 33.6014 163.187 33.6334C165.698 33.7675 168.027 32.5785 170.511 32.5173C172.341 32.4678 174.721 33.208 175.845 35.1196C175.796 35.1604 175.75 35.2012 175.704 35.2391ZM114.621 41.4489C111.377 42.3289 108.194 43.5732 105.196 45.3041C100.56 47.9821 96.7059 52.0006 93.54 56.8233C89.7609 62.5756 87.4687 69.2925 86.0597 76.3736C85.8213 77.5684 85.6022 78.7777 85.4051 79.9958C86.1473 73.1886 87.7996 66.4834 90.6296 60.5067C93.4767 54.4892 97.56 49.445 102.629 46.0997C104.016 45.1847 105.459 44.4095 106.938 43.7393C107.007 43.7364 107.072 43.7102 107.126 43.6548C108.617 42.9933 110.143 42.4396 111.686 41.9734C115.446 40.834 119.31 40.3182 123.074 39.173C128.552 37.5091 134.117 34.9768 138.461 30.5183C142.819 26.0423 145.87 18.5999 143.649 11.7956C142.897 9.48769 141.507 7.47408 139.651 6.34052C137.648 5.11954 135.171 5.04959 133.093 6.01413C131.063 6.95537 129.496 8.91652 128.766 11.3614C128.525 12.1715 128.401 12.9991 128.374 13.8325C127.978 10.3736 129.713 7.37498 132.265 5.85387C134.39 4.58334 136.957 4.47844 139.193 5.37305C141.663 6.35507 143.459 8.75626 144.179 11.7227C145.78 18.3318 143.461 25.2759 139.405 29.8364C135.609 34.1055 130.603 36.6378 125.683 38.4299C122.047 39.7529 118.319 40.4464 114.621 41.4489ZM110.958 46.5921C112.491 47.5246 113.53 49.3051 113.623 51.2779C112.637 50.3192 110.761 50.223 109.795 49.6635C108.518 48.9234 107.532 47.3585 107.131 45.7063C107.418 45.6888 107.778 45.68 108.016 45.6917C109.038 45.7383 110.048 46.0414 110.958 46.5921ZM110.391 37.5003C111.62 35.9268 113.163 34.7582 114.66 33.5926C117.984 30.9991 120.75 27.7208 122.537 23.5508C121.704 32.7592 114.484 38.7534 107.724 42.2968C108.459 40.5805 109.287 38.9166 110.391 37.5003ZM112.769 30.0491C115.297 26.3804 118.638 23.7577 122.283 21.9627C121.456 24.2356 120.322 26.3133 118.923 28.155C117.375 30.1948 115.533 31.7451 113.62 33.2517C112.195 34.3736 110.786 35.5479 109.63 37.0632C109.296 37.4974 108.99 37.9578 108.703 38.4357C109.727 35.4285 111.031 32.5698 112.769 30.0491ZM128.98 50.8495C130.392 52.4319 131.971 53.7636 133.774 54.6261C135.258 55.3343 136.842 55.6315 138.434 55.6577C134.533 57.2721 129.983 57.6713 126.705 54.2939C125.019 52.5572 124.252 49.9637 123.529 47.5217C122.965 45.6159 122.298 43.9054 121.269 42.4746C124.318 44.5377 126.44 48.0084 128.98 50.8495ZM125.987 43.7772C128.245 44.7038 130.065 46.3328 131.693 48.393C132.934 49.9724 133.927 51.8228 135.3 53.2565C135.82 53.8044 136.387 54.2327 136.986 54.5649C135.92 54.4134 134.874 54.1162 133.854 53.6295C132.063 52.7699 130.53 51.3012 129.153 49.7131C127.15 47.4052 125.374 44.7621 123.152 42.7893C124.104 43.0865 125.055 43.3954 125.987 43.7772ZM84.6605 109.32C84.6484 109.334 84.6386 109.349 84.6264 109.363C84.6678 109.13 84.7092 108.894 84.7481 108.658C84.7213 108.88 84.6922 109.098 84.6605 109.32ZM90.5201 70.5659C92.9122 64.6096 96.572 58.9885 101.884 56.5931C109.109 53.3381 116.587 56.6427 122.721 61.4188C125.972 63.9482 128.849 66.9729 131.659 70.1551C133.65 72.4076 135.696 75.0477 138.237 76.4144C139.994 77.3586 142.052 77.1662 143.418 75.4149C144.778 73.6665 144.642 70.9273 143.972 68.8496C143.362 66.9438 141.97 64.6971 140.04 65.0642C139.945 65.0846 139.855 65.1109 139.767 65.1429C140.41 64.6504 141.147 64.3124 141.777 64.1754C144.566 63.5664 146.664 66.4076 147.126 69.4615C147.61 72.664 145.778 75.5111 143.447 76.7787C140.274 78.5009 136.626 77.0526 134.02 74.6368C131.64 72.4338 129.494 69.852 127.179 67.5528C124.714 65.1079 122.135 62.7913 119.349 60.8913C119.11 60.7048 118.865 60.5329 118.616 60.3755C118.572 60.3464 118.529 60.3318 118.487 60.3231C118.39 60.2619 118.29 60.1978 118.193 60.1337C114.212 57.6422 109.613 55.9753 105.089 56.6485C97.9396 57.715 93.0509 64.6009 90.0018 71.9064C90.1698 71.4576 90.3425 71.0089 90.5201 70.5659ZM124.435 70.7553C124.89 72.5912 125.072 74.5582 124.958 76.4698C124.897 77.4839 124.644 79.1099 123.726 79.5383C123.074 79.8413 122.522 79.2031 122.247 78.5562C121.748 77.3819 122.064 75.8666 122.488 74.7359C123.133 73.0079 123.498 71.3236 123.31 69.4207C123.169 67.9899 122.741 66.6291 122.164 65.3731C123.191 67.0166 123.97 68.8845 124.435 70.7553ZM99.3753 97.5179C103.025 97.0021 106.678 97.8996 109.666 100.4C107.294 99.6714 104.877 100.065 102.4 100.662C100.967 101.006 99.5238 101.344 98.054 101.207C96.5794 101.067 95.3067 100.231 94.2457 99.0565C95.8518 98.2347 97.6598 97.7597 99.3753 97.5179ZM102.77 95.3994C105.259 95.4839 107.391 96.7865 109.038 98.7884C106.182 96.836 102.882 96.1221 99.5311 96.53C98.5796 96.6466 97.6135 96.836 96.6621 97.107C98.5577 95.9822 100.643 95.3236 102.77 95.3994ZM76.0195 126.816C72.9412 129.625 69.3641 131.408 65.6264 132.475C70.4591 130.869 75.2578 128.133 78.6013 123.654C81.227 120.137 83.1372 115.859 84.2152 111.319C84.2639 111.258 84.3101 111.199 84.3588 111.138C83.1591 117.345 80.3583 122.858 76.0195 126.816ZM61.7646 132.556C60.105 132.935 58.4259 133.2 56.7396 133.355C61.0881 132.134 65.2151 129.744 68.982 126.886C74.1263 122.978 78.7449 118.106 82.9839 112.866C81.682 117.322 79.5114 121.524 76.6522 124.627C72.5884 129.036 67.0621 131.341 61.7646 132.556ZM48.7629 133.299C48.5706 133.279 48.3784 133.259 48.1862 133.235C48.1886 133.212 48.191 133.186 48.191 133.159C48.191 133.031 48.1448 132.921 48.0766 132.836C48.3395 132.813 48.6023 132.789 48.8627 132.76C48.7775 132.854 48.7264 132.99 48.7312 133.139C48.7337 133.197 48.7458 133.25 48.7629 133.299ZM41.8447 131.702C41.7376 131.624 41.6305 131.545 41.5235 131.466C44.0031 131.769 46.512 131.697 48.9868 131.262C54.8537 130.237 60.4432 126.935 64.6773 121.961C64.6895 121.949 64.7017 121.938 64.7138 121.926C64.8842 121.728 65.0521 121.521 65.2103 121.314C65.4366 121.034 65.6605 120.749 65.877 120.457C69.4347 115.701 71.9752 109.349 71.8145 102.862C71.7415 100.006 71.0505 97.1886 69.717 94.8107C68.2667 92.2202 66.0839 90.3289 63.6943 89.1459C61.0151 87.8229 58.2629 87.5286 55.4815 88.6038C52.834 89.6267 50.549 91.7597 48.9381 94.4494C45.8988 99.5169 45.3829 109.5 51.2596 112.056C53.401 112.986 56.012 112.205 57.4063 110.022C58.7958 107.848 57.9271 105.307 56.3356 103.78C57.2944 104.147 58.0852 104.911 58.387 106.228C58.8153 108.108 57.9611 110.048 56.7688 111.226C54.934 113.032 52.1623 112.968 50.0161 112.146C47.3807 111.135 45.9158 108.087 45.2977 105.042C44.0907 99.0798 45.67 92.6456 49.6 88.6825C53.1746 85.0778 58.2556 83.8073 62.7793 85.0108C65.1373 85.6344 67.3346 86.9924 69.1256 88.9331C69.5855 89.4343 70.009 89.9734 70.4007 90.5388C70.8144 91.3343 71.2621 92.1065 71.7464 92.8321C72.4569 94.2629 73.0167 95.8103 73.4644 97.3926C75.2481 103.704 74.5643 110.465 71.7221 116.162C68.7971 122.022 63.9498 126.306 58.7447 128.896C53.4326 131.542 47.5559 132.475 41.8447 131.702ZM62.9424 111.817C62.2342 110.552 61.5163 109.261 61.2706 107.743C61.0516 106.394 61.3801 105.077 61.9082 103.885C62.1272 105.671 62.9715 107.449 63.8305 108.751C64.4511 109.699 65.2151 110.485 65.6824 111.566C66.0814 112.49 66.1715 113.56 66.1325 114.582C66.079 115.984 65.7042 117.357 65.2103 118.653C65.2078 117.797 65.1032 116.94 64.8818 116.095C64.4705 114.533 63.6967 113.16 62.9424 111.817ZM66.9502 111.22C67.3249 113.213 67.157 115.159 66.5779 116.94C67.1546 114.548 67.174 112.036 65.7967 109.987C65.1421 109.011 64.4073 108.16 63.8427 107.096C63.429 106.321 63.1151 105.485 62.901 104.602C62.7866 104.133 62.7184 103.649 62.6941 103.159C64.7552 105.252 66.354 108.038 66.9502 111.22ZM67.6315 76.971C67.6291 75.4032 67.8043 73.6548 68.5781 72.3435C68.8969 71.8044 69.4687 71.4139 69.807 72.1162C70.3594 73.2614 69.8313 74.9428 69.5612 76.0822C69.1329 77.9093 69.0721 79.8501 69.1889 81.7325C69.3349 84.023 69.7583 86.36 70.3959 88.6038C70.3423 88.4931 70.2888 88.3824 70.2402 88.2716C68.6511 84.8098 67.6388 80.937 67.6315 76.971ZM28.8454 127.605C25.1053 126.183 21.3432 124.764 17.4717 123.974C14.4445 123.357 10.9088 122.943 8.01059 124.42C5.66965 125.615 4.20959 128.424 3.99789 131.396C3.93219 132.294 4.01981 133.218 4.22421 134.086C4.59896 136.301 6.16848 138.017 8.11277 137.845C8.13954 137.842 8.1639 137.839 8.19067 137.837C7.46551 138.192 6.64299 138.358 5.75236 138.279C2.94178 138.038 1.31141 134.89 0.892868 131.837C0.389152 128.136 1.91732 124.773 4.3994 122.669C6.69167 120.728 9.52416 120.215 12.2715 120.399C18.282 120.81 24.0102 124.158 29.4173 127.055C32.111 128.5 34.8048 129.855 37.6763 130.685C37.7663 130.755 37.8588 130.825 37.9488 130.898C34.8657 130.041 31.8507 128.748 28.8454 127.605ZM5.2 120.081C7.95949 117.61 11.41 116.316 14.8411 116.226C21.8348 116.045 27.5533 121.463 32.751 126.367C33.7098 127.273 34.6759 128.168 35.6638 129.024C32.9044 127.999 30.2909 126.46 27.6555 125.061C24.8912 123.59 22.0952 122.182 19.2043 121.092C14.0041 119.134 7.80377 118.106 3.24843 122.509C2.96858 122.78 2.7082 123.065 2.45999 123.365C3.21435 122.098 4.1877 120.99 5.2 120.081ZM51.3885 68.5523C54.1529 66.4775 57.309 65.207 60.5309 64.5834C63.5069 64.0035 66.7555 63.9219 69.717 64.8428C63.9985 68.1502 57.3917 66.6028 51.3885 68.5523ZM58.791 62.3396C61.6892 61.48 64.6335 62.0977 67.3784 63.3537C65.0886 63.0506 62.7331 63.2167 60.5016 63.613C57.4891 64.1492 54.5349 65.2944 51.8801 67.0837C53.8682 64.9069 56.1361 63.1264 58.791 62.3396ZM83.3513 52.1579C84.1884 51.0506 85.0766 49.9928 85.9478 48.9117C83.5217 52.0909 81.0177 55.1652 79.4968 59.0817C80.4118 56.5348 81.7745 54.2502 83.3513 52.1579ZM89.8704 31.1128C88.7 28.1346 86.488 25.8267 83.8137 25.0166C81.2975 24.2589 78.3896 24.8825 76.4015 26.9282C75.6472 27.7033 75.0631 28.8252 74.7127 30.055C74.7395 29.9501 74.7687 29.8452 74.8003 29.7402C75.8223 26.3687 78.9736 24.4046 81.8499 24.4775C84.1422 24.5329 86.3931 25.7713 88.06 27.6188C90.2476 30.0521 91.1821 33.5547 91.1553 37.0632C91.1407 38.8058 90.7708 40.4464 90.1795 41.9821C91.3524 38.5144 91.2331 34.5921 89.8704 31.1128ZM76.9125 37.4479C78.0903 37.9724 79.3971 37.5441 80.4751 36.9C80.6819 36.7747 80.7087 36.4629 80.6186 36.2386C80.368 35.6208 80.7987 35.0292 81.3146 35.51C82.03 36.1715 81.2221 37.1914 80.6795 37.5615C79.8424 38.1356 78.7644 38.2026 77.8397 37.9753C77.1437 37.8034 76.5572 37.4362 76.0779 36.935C76.3261 37.1361 76.6035 37.308 76.9125 37.4479ZM176.755 35.0555C176.748 35.038 176.743 35.0176 176.736 35.0001C175.731 32.8495 173.448 31.8354 171.528 31.5965C169.049 31.2905 166.722 32.4999 164.274 32.6601C163.362 32.7184 162.437 32.6514 161.542 32.4299C161.442 32.4066 161.347 32.3745 161.25 32.3454C162.992 31.4362 164.664 30.3405 166.258 29.0933C168.482 27.3536 170.455 25.3488 171.969 22.7116C174.446 18.3901 175.556 12.5707 174.113 7.52069C173.473 5.2798 172.288 3.33614 170.664 1.98111C168.803 0.425003 166.469 -0.0849457 164.238 0.0112152C161.449 0.130692 159.008 1.60228 157.573 4.53381C156.945 5.81889 156.619 7.32545 156.67 8.81453C156.723 10.4056 157.329 11.7694 158.162 12.9758C159.605 15.0739 162.016 15.9539 164.053 14.5639C166.073 13.1827 166.581 10.1666 165.798 7.69846C165.615 7.12148 164.834 7.37209 165.019 7.95781C165.476 9.40317 165.508 10.9301 164.849 12.2939C164.291 13.4478 163.245 14.188 162.145 14.29C159.327 14.5523 157.254 10.7932 157.502 7.73926C157.777 4.34148 160.327 1.52361 163.084 1.0894C165.43 0.71933 167.912 1.07776 169.954 2.57849C173.67 5.31186 174.478 11.0933 173.602 15.8432C173.081 18.664 171.961 21.3158 170.441 23.5508C169.034 25.6198 167.238 27.2458 165.35 28.6533C165.564 27.4178 165.674 25.4071 164.69 23.5654C162.216 18.9379 157.351 19.2235 157.351 19.2235C157.351 19.2235 157.675 25.1536 162.386 26.5377C164.221 27.0768 164.819 28.1346 165.004 28.9098C164.656 29.1604 164.304 29.4081 163.951 29.6499C158.972 33.0681 153.373 34.3794 147.744 35.2565C145.396 35.6237 143.043 35.9413 140.687 36.256C140.602 36.2619 140.517 36.2706 140.432 36.2764C140.395 36.2794 140.361 36.2881 140.33 36.3027C136.743 36.7806 133.158 37.2585 129.591 37.9054C135.838 35.0875 141.729 30.629 144.286 23.2565C145.257 20.462 145.622 17.4051 145.386 14.3949C145.228 12.4046 144.836 10.4522 143.965 8.7242C142.736 6.28514 140.622 4.6795 138.322 4.08214C134.47 3.07678 129.873 4.97964 128.111 9.42355C126.705 12.9758 127.944 17.408 129.9 20.3192C130.197 20.7592 130.757 20.1968 130.535 19.7364C128.956 16.426 128.54 12.3055 130.693 9.20792C132.56 6.52118 135.674 5.77519 138.39 6.76305C138.777 6.90584 139.144 7.09525 139.492 7.31671C138.599 7.7072 135.755 9.26329 135.616 13.3226C135.509 16.4901 133.815 16.4697 133.815 16.4697C133.815 16.4697 136.288 17.0817 138.015 15.0768C140.32 12.4075 139.979 8.6601 139.814 7.54111C141.636 8.89613 142.831 11.3235 143.328 13.8005C144.172 18.0142 142.926 22.3707 140.933 25.8413C138.028 30.9 133.214 34.0151 128.53 36.1307C125.15 37.6548 121.624 38.7009 118.076 39.4964C115.925 39.9802 113.791 40.4348 111.679 41.0322C118.023 36.833 123.69 30.4076 123.415 21.1613C123.454 20.9603 123.376 20.8058 123.254 20.7213C123.159 20.6222 123.033 20.5756 122.902 20.6339C118.843 22.4726 115.137 25.2264 112.306 29.2128C109.508 33.1497 107.773 37.9695 106.551 42.8855C101.536 45.1847 97.066 48.8097 93.5838 53.7432C89.3691 59.7199 86.7533 67.0516 85.3662 74.6514C84.59 78.903 84.1982 83.2624 84.13 87.6101C84.1227 88.1084 84.1179 88.6097 84.1179 89.1109C83.1932 85.885 81.9789 82.7816 80.9666 79.5936C79.6477 75.4382 78.7181 71.0264 78.8447 66.5504C78.9469 63.0477 79.8789 59.717 81.4582 56.7825C84.2006 51.6859 88.6537 48.0929 90.8511 42.5649C93.304 36.4017 91.586 28.5601 86.5732 25.1244C84.6848 23.8306 82.4656 23.2594 80.3096 23.6353C77.4381 24.1336 74.8271 26.5552 73.9073 29.8772C73.0677 32.9078 74.0046 36.8039 76.4161 38.3745C78.0927 39.4673 80.6381 39.3478 81.9448 37.544C82.726 36.4659 82.3707 34.426 81.0104 34.3648C80.0419 34.3211 79.6161 35.2682 79.7791 36.224C78.2242 37.0224 76.5281 36.8155 75.6301 34.8777C74.7517 32.9923 75.1069 30.5562 76.0657 28.8282C77.5476 26.156 80.5894 25.3313 83.0934 25.8267C86.0183 26.4037 88.3082 29.0321 89.4081 32.2434C90.8681 36.495 90.2111 40.971 88.0113 44.5989C86.2495 47.5071 83.9062 49.8442 81.974 52.5805C79.7158 55.7743 78.1098 59.4576 77.6134 63.6364C77.151 67.5149 77.5404 71.446 78.3483 75.2575C77.589 73.5907 76.7641 71.9647 75.8394 70.4144C73.9998 67.3284 71.7732 64.5572 69.2911 62.2085C67.0037 60.0463 64.5606 58.1288 62.3364 55.8646C60.2364 53.7315 58.1388 51.1613 57.4453 47.8743C56.8223 44.9253 57.7227 41.8335 59.6767 39.9248C61.582 38.0686 64.3245 37.7801 66.4854 39.1264C69.1013 40.7524 70.9458 44.8903 69.257 48.1599C68.6219 49.3925 67.449 50.0744 66.2712 49.6461C64.709 49.0807 64.2077 46.9302 64.4681 45.2051C64.5605 44.596 63.7819 44.3338 63.6894 44.9486C63.4314 46.6592 63.6869 48.361 64.7382 49.6256C65.5607 50.6164 66.7871 50.9778 67.9016 50.6019C70.52 49.716 71.1527 45.7354 70.374 43.0487C69.4542 39.8782 66.865 37.6082 64.1104 37.3284C61.7524 37.0895 59.3385 38.4649 57.9174 40.7058C56.3381 43.1885 56.0728 46.4727 56.9902 49.3576C57.9782 52.4581 60.0928 54.8884 62.1782 56.9661C64.3367 59.1196 66.6922 60.9671 68.892 63.0594C65.7432 61.3955 62.3437 60.4717 58.898 61.3226C54.6906 62.3571 51.3034 66.0055 48.595 69.7995C48.41 69.986 48.4368 70.2337 48.556 70.4027C48.6606 70.5834 48.8651 70.6796 49.0841 70.5572C52.5785 68.6164 56.3989 68.4649 60.178 68.2289C63.9157 67.9928 67.595 67.41 70.9044 65.1895C70.9166 65.1837 70.9288 65.1808 70.9409 65.1779C72.7222 67.1827 74.321 69.4324 75.6934 71.8481C77.4211 74.8962 78.7789 78.2182 80.0443 81.5664C80.1636 81.9453 80.2852 82.3183 80.4069 82.6913C81.8742 87.1322 83.2734 91.4975 83.9621 96.227C83.984 96.3756 84.0035 96.5242 84.0229 96.6728C83.9183 96.7223 83.8307 96.8214 83.7893 96.9584C83.5606 97.7131 83.3197 98.4679 83.0788 99.2051C82.9961 99.4528 83.0982 99.7355 83.3051 99.8316C83.3538 99.8549 83.4049 99.8666 83.4536 99.8666C83.6142 99.8666 83.765 99.75 83.8283 99.5606C83.9597 99.1614 84.0911 98.7563 84.2201 98.3513C84.5267 101.498 84.4999 104.701 84.0668 107.828C83.9305 108.816 83.748 109.803 83.5241 110.785C83.4365 110.899 83.3489 111.01 83.2613 111.124C78.4091 117.252 73.041 122.937 66.9477 127.241C62.6284 130.292 57.8273 132.603 52.8194 133.145C53.401 133.034 53.985 132.909 54.5568 132.766C54.7734 132.714 54.9169 132.457 54.8707 132.195C54.8245 131.936 54.6104 131.764 54.3913 131.819C53.7441 131.979 53.0846 132.122 52.4251 132.239C52.2061 132.277 52.0529 132.521 52.0869 132.786C52.1113 132.988 52.2378 133.142 52.3935 133.186C52.0796 133.212 51.7633 133.232 51.4469 133.244C51.5224 133.145 51.5637 133.011 51.5516 132.868C51.5272 132.603 51.3277 132.413 51.1062 132.44C51.0892 132.443 51.0746 132.446 51.06 132.446C59.0659 130.997 66.6971 126.297 71.4544 118.406C74.574 113.23 75.893 106.84 74.9731 100.54C74.6032 98.0133 73.9073 95.5363 72.8877 93.2925C72.9169 93.1818 72.912 93.0565 72.8536 92.9254C72.0579 91.1915 71.4617 89.3032 70.9677 87.4207C70.0162 83.8044 69.5198 79.8238 70.3959 76.1143C70.7146 74.7534 71.4714 70.7233 69.3203 70.7466C68.5586 70.7524 67.9868 71.5829 67.6437 72.3027C66.9818 73.6869 66.8407 75.4062 66.8236 76.971C66.7823 80.6689 67.6972 84.3202 69.0551 87.6247C68.2107 86.7855 67.286 86.057 66.2761 85.4596C62.1247 83.0118 57.0778 83.0293 52.8535 85.2032C48.5122 87.4353 45.2734 91.8967 44.3925 97.5033C44.2927 98.1415 44.2197 98.8059 44.1735 99.4878C43.0127 99.8258 40.4674 100.965 39.8444 104.582C39.3115 107.688 37.6422 107.338 37.6422 107.338C37.6422 107.338 40.0002 108.419 41.9761 106.779C43.1441 105.808 43.8255 104.529 44.2245 103.305C44.6431 107.615 46.3392 111.75 49.9552 113.137C53.6418 114.553 58.9102 112.959 59.2873 107.563C59.3774 106.245 58.9856 104.92 58.2166 103.975C57.2408 102.781 55.7638 102.463 54.4254 102.55C54.0628 102.574 53.8219 103.247 54.221 103.451C55.4742 104.098 56.7883 105.059 57.2093 106.712C57.5159 107.918 57.0754 109.136 56.3673 109.993C54.5349 112.213 51.3958 111.747 49.6194 109.731C47.3101 107.117 47.1349 102.553 47.9428 99.1031C47.9696 98.9924 47.9988 98.8875 48.0256 98.7797C49.0354 97.987 51.1646 96.8069 53.7611 98.226C56.888 99.9278 58.4892 95.58 54.4108 94.5456C51.6976 93.8549 49.4272 96.3377 48.2543 97.99C49.1912 95.0701 51.0016 92.5932 53.2038 90.938C55.6348 89.1138 58.6133 88.3999 61.4142 89.2274C64.1128 90.023 66.6898 91.853 68.471 94.4173C71.8437 99.2663 71.4422 106.141 69.5807 111.66C69.0477 113.23 68.3932 114.728 67.6291 116.142C67.9746 114.568 68.0355 112.895 67.7654 111.17C67.1692 107.364 65.0399 104.069 62.5238 101.761C62.3802 101.633 62.2415 101.647 62.1344 101.734C62.0541 101.775 61.986 101.851 61.9495 101.971C61.0418 103.515 60.3289 105.284 60.4092 107.216C60.4749 108.781 61.1051 110.197 61.7962 111.491C62.5238 112.854 63.3366 114.151 63.8816 115.64C64.5508 117.467 64.5338 119.431 64.0715 121.32C61.9958 123.735 59.5818 125.749 56.9999 127.276C51.5929 130.473 45.4656 131.35 39.5816 130.146C39.5597 130.027 39.5038 129.919 39.4137 129.846C38.854 129.395 38.3041 128.928 37.776 128.462C37.5984 128.302 37.3453 128.348 37.2115 128.564C37.0801 128.78 37.1166 129.08 37.2966 129.24C37.3015 129.243 37.3064 129.246 37.3112 129.252C33.7244 126.311 30.4782 122.713 26.8233 119.904C24.4507 118.082 21.8737 116.657 19.1361 115.836C16.1236 114.932 12.9212 115.122 9.95489 116.179C5.52122 117.762 0.255296 122.171 0.192027 128.313C0.192027 128.325 0.194499 128.337 0.194499 128.351C0.0874289 128.946 0.0217078 129.561 0.00467399 130.19C-0.0707617 132.856 0.768764 135.654 2.38941 137.507C4.03196 139.384 6.57729 139.739 8.63595 138.708C10.9574 137.542 12.1571 134.739 12.1887 131.825C12.196 131.292 11.4611 131.146 11.3954 131.697C11.1278 133.917 10.2737 136.435 8.21258 136.866C6.58463 137.204 5.30221 135.601 5.0029 133.827C4.31425 130.91 5.32653 127.664 7.39249 125.936C8.7041 124.84 10.3053 124.566 11.8651 124.461C13.5953 124.345 15.3376 124.54 17.0434 124.863C20.9076 125.598 24.6673 127.037 28.3904 128.447C32.1135 129.858 35.8366 131.484 39.6911 132.303C39.8104 132.329 39.9296 132.352 40.0488 132.376C40.2435 132.501 40.4406 132.623 40.6377 132.743C42.2852 133.742 44.0275 134.558 45.8087 135.193C45.8428 135.313 45.9158 135.418 46.0204 135.476C46.6409 135.826 47.2687 136.155 47.8868 136.458C47.9379 136.481 47.989 136.496 48.0401 136.496C48.1983 136.496 48.3492 136.382 48.4125 136.196C48.4344 136.129 48.4441 136.062 48.4417 135.995C48.668 136.053 48.8943 136.108 49.1206 136.161C49.0306 136.213 48.9527 136.307 48.9162 136.429C48.8359 136.68 48.9429 136.956 49.1522 137.05C49.7971 137.335 50.4468 137.6 51.0843 137.837C51.1257 137.851 51.1646 137.86 51.206 137.86C51.3788 137.86 51.537 137.726 51.5905 137.519C51.6562 137.262 51.537 136.991 51.3228 136.913C50.8264 136.729 50.3227 136.528 49.8214 136.312C56.8418 137.749 64.1079 136.534 70.8095 133.821C74.0338 132.515 77.1437 130.831 80.3485 129.459C83.1153 128.273 85.9356 127.247 88.8241 126.606C90.9217 126.137 93.0095 125.956 95.0804 126.035C94.8175 126.067 94.5547 126.102 94.2919 126.145C94.0705 126.18 93.9172 126.425 93.9464 126.69C93.9756 126.932 94.1484 127.107 94.3455 127.107C94.365 127.107 94.3844 127.107 94.4014 127.104C95.056 126.996 95.7228 126.923 96.3798 126.88C96.6012 126.865 96.7716 126.638 96.7618 126.373C96.757 126.291 96.7351 126.215 96.701 126.145C96.9054 126.169 97.1123 126.192 97.3167 126.218C97.3069 126.262 97.2997 126.309 97.2997 126.355C97.2972 126.623 97.4773 126.839 97.7012 126.842C98.363 126.845 99.0298 126.88 99.6844 126.95C99.6965 126.95 99.7087 126.953 99.7209 126.953C99.8645 126.953 99.9934 126.856 100.064 126.717C100.276 126.763 100.485 126.816 100.697 126.871C100.755 127.008 100.862 127.11 100.998 127.133C101.658 127.247 102.312 127.398 102.948 127.579C102.977 127.588 103.011 127.591 103.04 127.591C103.045 127.591 103.05 127.591 103.055 127.591C103.994 127.92 104.926 128.299 105.853 128.724C105.846 128.736 103.624 132.364 99.7549 131.178C96.426 130.158 95.4892 134.774 99.6552 134.934C103.717 135.094 105.846 128.751 105.853 128.724C105.943 128.765 106.033 128.806 106.123 128.85C106.315 128.94 106.464 128.847 106.544 128.686C106.561 128.66 106.578 128.631 106.593 128.599C106.69 128.36 106.61 128.069 106.41 127.952C106.381 127.932 105.69 127.524 104.459 127.069C104.42 127.055 104.381 127.049 104.339 127.049C101.522 125.93 98.6112 125.201 95.6279 125.035C92.2162 124.849 88.8095 125.478 85.5171 126.501C81.6747 127.699 77.9638 129.441 74.2845 131.213C70.4226 133.072 66.4878 134.558 62.3681 135.345C56.5401 136.458 50.6731 136.024 45.1079 133.868C45.0446 133.83 44.9813 133.792 44.9181 133.751C46.0593 133.97 47.2055 134.15 48.3467 134.308C53.8535 135.062 59.4942 135.022 64.9329 133.658C71.1307 132.102 77.0512 128.433 80.9544 122.328C83.3294 118.613 84.714 114.311 85.3832 109.806C87.4054 107.146 89.3181 104.369 91.3646 101.734C92.0021 100.916 92.6518 100.108 93.3113 99.3158C94.3844 100.642 95.6571 101.635 97.178 102.023C98.5456 102.373 99.9545 102.175 101.315 101.892C102.838 101.58 104.337 101.123 105.877 100.959C107.683 100.767 109.459 101.088 111.095 102.04C111.45 102.247 111.854 101.822 111.647 101.379C111.576 101.227 111.503 101.079 111.428 100.93C111.413 100.86 111.382 100.793 111.328 100.729C109.489 97.1857 106.646 94.7641 103.084 94.4494C100.468 94.2192 97.8763 95.1633 95.5938 96.699C96.6864 95.5072 97.8107 94.3591 98.9811 93.278C104.245 88.4173 110.467 85.1128 117.212 85.4305C120.198 85.5703 123.323 86.2959 125.917 88.1434C127.793 89.481 129.314 91.4392 130.328 93.7471C129.783 93.8404 127.785 94.3124 126.756 96.4543C124.856 100.406 126.89 104.587 126.89 104.587C126.89 104.587 130.418 102.035 129.467 97.3489C128.949 94.7962 129.978 93.989 130.348 93.7879C130.357 93.8112 130.37 93.8345 130.379 93.8578C132.183 98.0482 132.11 103.53 129.63 107.315C126.763 111.695 120.332 113.227 116.733 109.317C114.842 107.262 114.224 103.94 115.655 101.315C117.129 98.6165 121.507 97.0808 122.697 100.948C123.111 102.291 122.631 103.667 121.875 104.675C121.527 105.135 122.096 105.823 122.444 105.36C124.13 103.113 124.028 99.7967 121.719 98.2231C119.212 96.5155 116.025 98.5728 114.72 101.292C113.526 103.777 113.988 106.907 115.448 109.075C117.19 111.663 119.845 112.636 122.541 112.444C126.793 112.141 130.484 109.189 131.873 104.29C132.243 102.999 132.423 101.662 132.44 100.321C132.922 101.825 133.964 103.731 136.215 104.392C138.784 105.147 138.434 107.131 138.434 107.131C138.434 107.131 139.424 104.351 138.125 101.924C136.414 98.7214 133.324 98.3542 132.343 98.3192C132.049 95.5655 131.087 92.902 129.637 90.7311C126.116 85.4771 119.94 84.1017 114.604 84.498C108.07 84.9846 102.201 88.8457 97.2266 93.7238C92.8854 97.9783 89.3302 103.11 85.6047 108.073C85.8091 106.193 85.8942 104.287 85.8845 102.381C85.8675 99.7821 85.702 97.1799 85.32 94.6184C85.427 94.2338 85.5317 93.8433 85.6339 93.4528C85.6874 93.2605 85.6314 93.0565 85.5073 92.9341C85.5365 92.7039 85.5657 92.4766 85.5974 92.2464C85.6144 92.2493 85.6314 92.2493 85.646 92.2493C85.8188 92.2493 85.9794 92.1123 86.033 91.9054L86.0548 91.8151C86.2398 91.0691 86.432 90.326 86.6243 89.6034C86.6924 89.3469 86.5756 89.0759 86.3615 88.9943C86.2739 88.9623 86.1838 88.9681 86.1035 89.0031C86.157 88.6883 86.213 88.3736 86.2714 88.0589C86.3055 88.2046 86.4004 88.3299 86.5294 88.3824C86.5732 88.3998 86.617 88.4086 86.6583 88.4086C86.8262 88.4086 86.9844 88.2804 87.0404 88.0793C87.2569 87.3071 87.4784 86.5436 87.7023 85.8064C87.7777 85.5558 87.6706 85.2789 87.4614 85.1857C87.2497 85.0953 87.0185 85.2265 86.943 85.4771C86.7678 86.0541 86.5951 86.6456 86.4247 87.243C86.8555 84.9963 87.3616 82.7699 87.9529 80.5757C90.0286 72.8593 93.3234 64.4873 99.2999 60.0871C105.525 55.5033 112.46 57.5344 118.519 61.5208C119.512 62.5349 120.376 63.7791 121.076 65.0759C121.785 66.3785 122.288 67.8209 122.495 69.3595C122.748 71.2362 122.274 72.8505 121.68 74.5494C121.047 76.362 120.816 79.4479 122.685 80.3979C124.649 81.3945 125.578 78.4513 125.749 76.6767C126.162 72.4193 124.846 67.9666 122.668 64.6271C123.882 65.6441 125.038 66.7019 126.114 67.751C128.457 70.0327 130.659 72.5009 132.959 74.8408C135.448 77.376 138.575 78.9496 141.875 78.3318C144.369 77.8656 146.593 75.9132 147.574 73.1128C148.574 70.2512 147.734 66.7398 145.868 64.6767C144.257 62.8962 141.938 62.7767 140.018 63.8462C138.436 64.7262 136.976 66.7573 137.487 68.9632C137.597 69.4265 138.157 69.4207 138.268 68.9632C138.441 68.2405 138.733 67.5208 139.12 66.9292C139.845 65.816 140.88 65.7403 141.782 66.6349C143.366 68.1997 144.177 71.5276 143.34 73.8093C142.875 75.074 141.792 75.8928 140.661 76.0298C139.595 76.158 138.57 75.6043 137.675 74.9691C135.049 73.107 132.913 70.2104 130.693 67.7451C125.274 61.7189 118.653 55.9753 111.175 54.5912C107.904 53.985 104.471 54.3581 101.38 55.7947C98.9616 56.9166 96.8251 58.7408 95.0098 60.9467C91.7441 64.9156 89.5906 70.0531 88.0186 75.2401C86.7971 79.276 85.9356 83.4547 85.32 87.6888C85.4587 85.9579 85.6534 84.2357 85.8748 82.531C86.8044 75.3828 88.4761 68.2056 91.5495 61.9375C94.1362 56.6631 97.8082 51.8782 102.079 48.5212C103.424 47.4634 104.841 46.5484 106.301 45.75C106.632 47.344 107.481 48.8709 108.547 49.8588C109.012 50.2901 109.523 50.6019 110.073 50.8495C110.771 51.1613 111.525 51.1672 112.233 51.4353C112.83 51.6597 113.501 52.2978 113.45 53.1167C113.414 53.6762 114.122 53.7578 114.243 53.2478C114.932 50.3338 113.754 47.5013 111.671 45.9627C110.703 45.2459 109.518 44.8321 108.335 44.7242C108.97 44.4328 109.61 44.156 110.253 43.8996C113.127 42.7543 116.081 42.1045 119.03 41.3848C119.045 41.3993 119.057 41.411 119.069 41.4226C120.227 42.3347 121.12 43.4945 121.777 44.9574C122.386 46.3095 122.746 47.8073 123.189 49.241C123.928 51.6189 124.899 53.9005 126.622 55.4537C130.842 59.2624 136.572 57.9074 141.008 55.445C141.206 55.3372 141.245 55.104 141.186 54.903C141.164 54.6903 141.038 54.5125 140.804 54.5446C138.741 54.5242 136.937 53.8219 135.436 52.0968C134.309 50.8 133.409 49.2526 132.367 47.8597C132.796 47.2828 135.047 44.5494 138.512 45.785C141.826 46.971 142.926 42.3697 138.736 42.0084C135 41.6849 132.713 46.9156 132.343 47.8306C132.163 47.5887 131.978 47.3527 131.786 47.1225C130.16 45.1847 128.369 43.7626 126.201 42.8447C124.379 42.0754 122.481 41.615 120.619 40.9884C120.862 40.9243 121.106 40.8602 121.347 40.7932C121.785 40.6766 122.225 40.5543 122.67 40.4231C128.549 38.9632 134.48 38.0423 140.459 37.241C140.471 37.241 140.478 37.241 140.49 37.241C141.167 37.1827 141.841 37.1361 142.493 37.1011C142.607 37.0982 142.707 37.0341 142.778 36.9408C143.016 36.9088 143.255 36.8796 143.495 36.8476C143.568 36.97 143.688 37.0516 143.822 37.0516C143.824 37.0516 143.829 37.0516 143.831 37.0516C144.517 37.0312 145.189 37.0283 145.836 37.037C145.836 37.037 145.839 37.037 145.841 37.037C146.06 37.037 146.24 36.8272 146.245 36.562C146.245 36.5358 146.243 36.5096 146.24 36.4863C146.433 36.4571 146.622 36.4309 146.817 36.4047C146.798 36.4571 146.785 36.5183 146.781 36.5766C146.773 36.8447 146.946 37.072 147.17 37.0807C147.849 37.1128 148.52 37.1623 149.168 37.2264C149.177 37.2264 149.19 37.2264 149.202 37.2264C149.409 37.2264 149.586 37.037 149.603 36.7835C149.62 36.5183 149.455 36.2852 149.233 36.2619C148.927 36.2327 148.615 36.2036 148.299 36.1803C151.937 35.6091 155.548 34.8223 159.004 33.3974C159.39 33.2371 159.775 33.0652 160.155 32.8874C162.393 36.6057 165.961 38.6747 169.791 38.5348C172.183 38.4474 174.799 37.4187 176.673 35.5858C176.836 35.4255 176.836 35.2186 176.755 35.0555Z" fill="#18181B"/>
<path d="M91.2964 23.4081C89.1088 23.376 90.2549 28.5018 92.8903 28.394C96.3214 28.5688 93.4865 23.4402 91.2964 23.4081Z" fill="#18181B"/>
<path d="M97.2023 35.8861C99.7914 34.2017 93.6324 28.4086 93.6324 28.4086C93.6324 28.4086 94.6156 37.5675 97.2023 35.8861Z" fill="#18181B"/>
<path d="M94.5231 26.0919C99.716 27.5664 102.04 26.4096 106.276 22.4494C102.261 20.2464 97.8179 21.5373 94.5231 26.0919Z" fill="#18181B"/>
<path d="M100.088 13.6927C94.051 16.1638 93.2991 24.5446 93.2991 24.5446C96.8275 23.4547 100.251 18.1482 100.088 13.6927Z" fill="#18181B"/>
<path d="M92.5641 23.7549C91.1576 20.6543 96.1632 16.8457 93.0095 11.886C90.0456 14.7068 90.031 21.4557 92.5641 23.7549Z" fill="#18181B"/>
<path d="M90.839 23.4751C88.3082 22.1172 88.5881 14.8904 86.1473 15.3217C83.327 15.82 85.9989 23.6733 90.839 23.4751Z" fill="#18181B"/>
<path d="M103.984 32.1677C103.984 32.1677 100.633 26.2726 94.5182 27.3916C97.8033 33.7442 103.984 32.1677 103.984 32.1677Z" fill="#18181B"/>
<path d="M106.805 128.704C107.8 130.473 114.022 137.568 115.774 133.635C117.706 129.301 108.985 128.331 106.805 128.704Z" fill="#18181B"/>
<path d="M115.572 120.157C113.944 115.728 107.167 123.097 106.727 128.04C108.284 127.297 116.808 123.52 115.572 120.157Z" fill="#18181B"/>
<path d="M106.464 128.853C103.468 132.265 104.269 141.339 106.727 141.843C108.664 142.243 108.89 139.661 108.279 136.575C107.746 133.868 106.474 130.782 106.464 128.853Z" fill="#18181B"/>
<path d="M107.868 131.446C107.868 131.446 108.992 137.05 110.206 140.118C111.185 142.604 112.715 144.119 114.049 142.855C115.244 141.718 114.394 139.058 112.815 136.761C110.842 133.897 107.868 131.446 107.868 131.446Z" fill="#18181B"/>
<path d="M109.62 127.713C111.528 128.109 120.68 129.532 120.008 125.382C119.293 120.956 111.177 126.594 109.62 127.713Z" fill="#18181B"/>
<path d="M66.573 125.671C66.0231 126.116 65.4561 126.548 64.8891 126.95C64.6969 127.087 64.6336 127.381 64.7456 127.611C64.821 127.763 64.9573 127.847 65.096 127.847C65.1641 127.847 65.2347 127.827 65.3004 127.78C65.882 127.369 66.4611 126.929 67.0256 126.475C67.2106 126.326 67.2592 126.023 67.1351 125.802C67.011 125.58 66.7604 125.522 66.573 125.671Z" fill="#18181B"/>
<path d="M63.7307 127.734C63.1491 128.112 62.5505 128.477 61.9519 128.812C61.7499 128.925 61.6623 129.214 61.7572 129.456C61.8253 129.631 61.9713 129.733 62.1222 129.733C62.1806 129.733 62.239 129.718 62.2925 129.686C62.9057 129.342 63.519 128.975 64.1176 128.584C64.3123 128.456 64.3853 128.165 64.2782 127.929C64.1736 127.696 63.9278 127.608 63.7307 127.734Z" fill="#18181B"/>
<path d="M69.24 123.296C68.7266 123.8 68.1961 124.292 67.6632 124.755C67.4831 124.913 67.4442 125.216 67.5756 125.432C67.6535 125.563 67.7775 125.63 67.9016 125.63C67.9844 125.63 68.0671 125.601 68.1401 125.539C68.6828 125.061 69.2254 124.56 69.7535 124.044C69.9238 123.875 69.9506 123.569 69.8094 123.363C69.6683 123.156 69.4152 123.127 69.24 123.296Z" fill="#18181B"/>
<path d="M57.6132 130.825C56.9829 131.059 56.3356 131.274 55.6908 131.466C55.4742 131.531 55.3428 131.793 55.3963 132.052C55.4401 132.274 55.6056 132.419 55.7881 132.419C55.8197 132.419 55.8514 132.416 55.883 132.405C56.5449 132.21 57.2068 131.988 57.8516 131.746C58.0658 131.668 58.185 131.397 58.1193 131.143C58.0512 130.887 57.8249 130.744 57.6132 130.825Z" fill="#18181B"/>
<path d="M60.7352 129.459C60.1268 129.768 59.499 130.056 58.8761 130.321C58.6644 130.412 58.5548 130.688 58.6303 130.939C58.6887 131.137 58.8445 131.263 59.0099 131.263C59.0537 131.263 59.0999 131.251 59.1462 131.233C59.7837 130.962 60.4261 130.665 61.0491 130.35C61.2559 130.246 61.3508 129.963 61.2657 129.718C61.1781 129.47 60.942 129.354 60.7352 129.459Z" fill="#18181B"/>
<path d="M71.7197 120.638C71.2427 121.194 70.7512 121.742 70.2572 122.261C70.0869 122.439 70.0723 122.745 70.2183 122.946C70.2986 123.054 70.4105 123.109 70.5225 123.109C70.6174 123.109 70.7123 123.071 70.7902 122.99C71.2939 122.456 71.7976 121.9 72.2843 121.329C72.4424 121.142 72.4473 120.836 72.2891 120.647C72.1334 120.454 71.8779 120.451 71.7197 120.638Z" fill="#18181B"/>
<path d="M89.4348 80.5991C89.7098 79.8531 89.9896 79.1188 90.2743 78.4165C90.3693 78.1775 90.2841 77.889 90.0846 77.7725C89.8826 77.6559 89.6417 77.7579 89.5443 77.9968C89.2596 78.7108 88.9725 79.4539 88.6951 80.2086C88.605 80.4534 88.7 80.739 88.9044 80.8468C88.9555 80.873 89.0114 80.8876 89.065 80.8876C89.2207 80.8876 89.3691 80.7798 89.4348 80.5991Z" fill="#18181B"/>
<path d="M97.4724 64.8749C96.9614 65.379 96.4504 65.9385 95.9515 66.5388C95.7958 66.7253 95.7958 67.0342 95.9564 67.2207C96.0343 67.3169 96.1365 67.3606 96.2411 67.3606C96.3433 67.3606 96.4479 67.314 96.5258 67.2178C97.0052 66.6408 97.4943 66.1046 97.9859 65.6209C98.1562 65.4519 98.1805 65.1459 98.0394 64.9419C97.8982 64.735 97.6452 64.7059 97.4724 64.8749Z" fill="#18181B"/>
<path d="M100.344 62.599C99.7478 62.9603 99.1516 63.3916 98.5676 63.8783C98.3851 64.0298 98.3413 64.3329 98.4678 64.5514C98.5457 64.6855 98.6722 64.7583 98.7988 64.7583C98.8791 64.7583 98.9594 64.7292 99.03 64.6709C99.5823 64.2105 100.147 63.8025 100.709 63.4616C100.909 63.3421 100.989 63.0507 100.887 62.8117C100.787 62.5728 100.544 62.4795 100.344 62.599Z" fill="#18181B"/>
<path d="M107.442 61.7627C107.479 61.5004 107.33 61.2498 107.109 61.209C106.425 61.0721 105.719 61.0225 105.014 61.0633C104.79 61.075 104.619 61.3023 104.629 61.5675C104.639 61.8355 104.829 62.0395 105.05 62.0279C105.7 61.9929 106.349 62.0366 106.977 62.1619C106.999 62.1648 107.024 62.1707 107.043 62.1707C107.238 62.1707 107.41 61.9987 107.442 61.7627Z" fill="#18181B"/>
<path d="M104.848 67.8822C104.804 67.6199 104.593 67.448 104.374 67.5004C103.631 67.6782 102.977 68.1911 102.48 68.9808C102.347 69.1935 102.381 69.4966 102.561 69.6568C102.631 69.7238 102.716 69.753 102.802 69.753C102.926 69.753 103.045 69.686 103.125 69.5607C103.5 68.9633 103.987 68.5786 104.532 68.4504C104.751 68.398 104.892 68.1444 104.848 67.8822Z" fill="#18181B"/>
<path d="M104.656 77.7957C105.113 78.0376 105.617 78.2241 106.155 78.3494C106.342 78.3902 106.529 78.4281 106.714 78.4543C106.729 78.4572 106.746 78.4572 106.763 78.4572C106.965 78.4572 107.138 78.2765 107.162 78.0318C107.189 77.7666 107.033 77.5247 106.812 77.4927C106.644 77.4694 106.476 77.4373 106.308 77.3994C105.829 77.2887 105.383 77.1255 104.982 76.9099C104.777 76.805 104.539 76.9157 104.449 77.1576C104.359 77.4023 104.451 77.6879 104.656 77.7957Z" fill="#18181B"/>
<path d="M91.9413 73.6637C92.007 73.7132 92.0801 73.7365 92.1531 73.7365C92.2869 73.7365 92.4207 73.6549 92.4962 73.5063C92.8539 72.8098 93.2189 72.1367 93.5863 71.5044C93.7129 71.2858 93.6691 70.9827 93.4841 70.8312C93.3016 70.6797 93.051 70.7321 92.922 70.9536C92.5473 71.6005 92.1725 72.2882 91.8075 72.9993C91.6907 73.2266 91.7515 73.5238 91.9413 73.6637Z" fill="#18181B"/>
<path d="M90.5079 77.2479C90.6539 77.2479 90.795 77.1518 90.868 76.9857C91.1771 76.263 91.4983 75.5549 91.8195 74.8788C91.929 74.6486 91.8609 74.3514 91.6686 74.2173C91.474 74.0862 91.2282 74.1678 91.1162 74.4009C90.7902 75.0857 90.4641 75.8084 90.1478 76.5456C90.0456 76.7817 90.1258 77.0731 90.323 77.1955C90.3814 77.2334 90.4446 77.2479 90.5079 77.2479Z" fill="#18181B"/>
<path d="M109.897 77.0002C109.328 77.2916 108.715 77.4723 108.075 77.5306C107.853 77.551 107.685 77.7812 107.702 78.0493C107.719 78.3028 107.897 78.498 108.104 78.498C108.116 78.498 108.126 78.4951 108.135 78.4951C108.866 78.4281 109.566 78.2241 110.218 77.8861C110.423 77.7812 110.518 77.4956 110.428 77.2508C110.34 77.0061 110.102 76.8924 109.897 77.0002Z" fill="#18181B"/>
<path d="M88.6928 81.4383C88.4859 81.3363 88.2499 81.4529 88.1647 81.7006C87.9117 82.432 87.6586 83.1926 87.4152 83.959C87.3349 84.2096 87.4395 84.4893 87.6488 84.5855C87.6951 84.6059 87.7437 84.6146 87.7924 84.6146C87.953 84.6146 88.1063 84.4981 88.1696 84.3057C88.4105 83.5452 88.6587 82.7933 88.9118 82.0707C88.9969 81.8259 88.8972 81.5403 88.6928 81.4383Z" fill="#18181B"/>
<path d="M102.052 73.582C102.072 73.582 102.091 73.5791 102.111 73.5762C102.33 73.5383 102.485 73.2935 102.454 73.0313C102.424 72.7923 102.41 72.5505 102.41 72.3086C102.41 71.8074 102.471 71.3149 102.59 70.8458C102.656 70.5922 102.536 70.3212 102.322 70.2425C102.111 70.1639 101.882 70.3096 101.819 70.566C101.675 71.1226 101.602 71.7083 101.602 72.3086C101.602 72.5942 101.619 72.8827 101.653 73.1653C101.682 73.4072 101.855 73.582 102.052 73.582Z" fill="#18181B"/>
<path d="M110.897 76.9273C110.975 77.0555 111.097 77.1226 111.221 77.1226C111.304 77.1226 111.389 77.0934 111.462 77.0293C112.034 76.5194 112.535 75.8957 112.946 75.1789C113.073 74.9574 113.024 74.6573 112.842 74.5058C112.657 74.3542 112.406 74.4125 112.28 74.6311C111.92 75.2634 111.482 75.8054 110.98 76.2513C110.803 76.4115 110.764 76.7146 110.897 76.9273Z" fill="#18181B"/>
<path d="M103.417 76.8982C103.49 76.9711 103.58 77.006 103.67 77.006C103.787 77.006 103.904 76.9448 103.987 76.8254C104.125 76.6185 104.099 76.3154 103.923 76.1464C103.439 75.6772 103.059 75.0973 102.799 74.4329C102.704 74.1911 102.466 74.0891 102.264 74.1998C102.059 74.3135 101.974 74.602 102.069 74.8438C102.381 75.6423 102.836 76.3329 103.417 76.8982Z" fill="#18181B"/>
<path d="M112.864 67.381C113.105 68.0949 113.258 68.838 113.321 69.5898C113.343 69.8375 113.518 70.024 113.723 70.024C113.737 70.024 113.749 70.024 113.764 70.0211C113.985 69.9949 114.149 69.7559 114.124 69.4907C114.054 68.6515 113.881 67.821 113.616 67.0196C113.533 66.7719 113.297 66.6524 113.09 66.7486C112.883 66.8506 112.781 67.1303 112.864 67.381Z" fill="#18181B"/>
<path d="M110.542 63.2868C110.654 63.0566 110.591 62.7594 110.399 62.6224C109.798 62.2028 109.15 61.856 108.474 61.5996C108.262 61.518 108.036 61.6608 107.968 61.9143C107.9 62.1707 108.016 62.4388 108.231 62.5233C108.849 62.7565 109.44 63.0712 109.988 63.4587C110.053 63.5025 110.124 63.5258 110.194 63.5258C110.331 63.5258 110.467 63.4383 110.542 63.2868Z" fill="#18181B"/>
<path d="M113.251 73.9725C113.411 73.9725 113.56 73.8588 113.625 73.6752C113.898 72.8885 114.066 72.0521 114.134 71.1925C114.153 70.9273 113.99 70.6913 113.769 70.668C113.545 70.6417 113.35 70.837 113.328 71.1051C113.27 71.8656 113.119 72.6087 112.878 73.3052C112.793 73.5499 112.893 73.8355 113.097 73.9375C113.148 73.9608 113.199 73.9725 113.251 73.9725Z" fill="#18181B"/>
<path d="M103.768 62.2056C103.989 62.1561 104.133 61.9055 104.094 61.6432C104.055 61.378 103.843 61.2061 103.624 61.2527C102.955 61.3984 102.278 61.6257 101.614 61.9259C101.405 62.0191 101.3 62.3018 101.378 62.5495C101.439 62.7418 101.592 62.8613 101.755 62.8613C101.804 62.8613 101.853 62.8525 101.899 62.8321C102.517 62.5495 103.147 62.3397 103.768 62.2056Z" fill="#18181B"/>
<path d="M111.552 63.5956C111.382 63.4237 111.129 63.4499 110.985 63.6568C110.842 63.8608 110.866 64.1668 111.036 64.3358C111.555 64.8545 111.988 65.4373 112.289 66.0201C112.367 66.1658 112.499 66.2445 112.635 66.2445C112.706 66.2445 112.781 66.2212 112.847 66.1746C113.036 66.0318 113.095 65.7345 112.976 65.5073C112.63 64.8399 112.136 64.1755 111.552 63.5956Z" fill="#18181B"/>
<path d="M73.9999 117.733C73.5619 118.339 73.1117 118.933 72.6542 119.504C72.5009 119.697 72.5057 120.003 72.6688 120.186C72.7466 120.277 72.8464 120.32 72.9462 120.32C73.0532 120.32 73.1603 120.271 73.2382 120.172C73.703 119.589 74.1653 118.983 74.6106 118.368C74.7566 118.167 74.7396 117.858 74.5692 117.683C74.4013 117.511 74.1459 117.532 73.9999 117.733Z" fill="#18181B"/>
<path d="M93.8002 70.3095C93.8732 70.3766 93.9584 70.4086 94.0436 70.4086C94.1652 70.4086 94.2869 70.3416 94.3672 70.2163C94.7785 69.5665 95.1994 68.9487 95.6253 68.3746C95.7713 68.1765 95.7567 67.8676 95.5888 67.6927C95.4209 67.515 95.1654 67.5354 95.0194 67.7335C94.5813 68.328 94.1458 68.9662 93.7224 69.6335C93.5885 69.8462 93.6226 70.1493 93.8002 70.3095Z" fill="#18181B"/>
<path d="M79.6793 107.898C79.3532 108.6 79.0174 109.296 78.6767 109.973C78.5599 110.203 78.6232 110.497 78.813 110.637C78.8811 110.684 78.9517 110.707 79.0222 110.707C79.1585 110.707 79.2924 110.622 79.3678 110.471C79.7134 109.786 80.054 109.078 80.385 108.364C80.492 108.131 80.4215 107.837 80.2268 107.705C80.0321 107.577 79.7863 107.662 79.6793 107.898Z" fill="#18181B"/>
<path d="M81.974 103.533C82.0276 103.562 82.086 103.573 82.1395 103.573C82.2953 103.573 82.4413 103.468 82.507 103.291C82.7844 102.562 83.0569 101.813 83.3197 101.061C83.4049 100.814 83.3075 100.531 83.1031 100.429C82.8963 100.327 82.6602 100.444 82.5726 100.688C82.3147 101.432 82.0446 102.172 81.7745 102.891C81.6796 103.133 81.7696 103.419 81.974 103.533Z" fill="#18181B"/>
<path d="M81.2075 104.34C80.9179 105.065 80.6162 105.785 80.3096 106.487C80.2074 106.723 80.2828 107.015 80.4799 107.14C80.5407 107.178 80.604 107.193 80.6673 107.193C80.8133 107.193 80.9544 107.099 81.0274 106.936C81.334 106.225 81.6431 105.494 81.9375 104.759C82.0324 104.517 81.9473 104.229 81.7453 104.112C81.5457 103.999 81.3024 104.101 81.2075 104.34Z" fill="#18181B"/>
<path d="M78.5308 111.185C78.3435 111.039 78.0928 111.106 77.9736 111.331C77.6134 112.007 77.2387 112.68 76.8615 113.324C76.735 113.542 76.7788 113.845 76.9613 113.997C77.0343 114.055 77.1122 114.084 77.1925 114.084C77.3214 114.084 77.4455 114.011 77.5258 113.877C77.9079 113.222 78.2875 112.54 78.6549 111.852C78.7742 111.625 78.7182 111.328 78.5308 111.185Z" fill="#18181B"/>
<path d="M76.6473 114.521C76.4696 114.361 76.2166 114.408 76.0827 114.62C75.6861 115.264 75.2724 115.9 74.8563 116.512C74.7152 116.719 74.7419 117.024 74.9147 117.191C74.9901 117.266 75.0802 117.301 75.1702 117.301C75.287 117.301 75.4038 117.24 75.4841 117.121C75.9051 116.5 76.3261 115.85 76.7324 115.194C76.8663 114.982 76.8273 114.679 76.6473 114.521Z" fill="#18181B"/>
<path d="M26.4947 96.7632C26.5458 96.7894 26.5994 96.8011 26.6505 96.8011C26.8087 96.8011 26.9595 96.6904 27.0252 96.5039C27.2808 95.7724 27.5776 95.0643 27.9013 94.3999C28.0132 94.1668 27.9475 93.8725 27.7553 93.7384C27.563 93.6015 27.3148 93.6802 27.2029 93.9104C26.8622 94.6126 26.5507 95.3586 26.2782 96.1309C26.193 96.3756 26.2903 96.6612 26.4947 96.7632Z" fill="#18181B"/>
<path d="M25.6407 108.658C25.8597 108.612 26.0081 108.364 25.9716 108.102C25.8645 107.321 25.7891 106.531 25.7502 105.75C25.738 105.482 25.5458 105.281 25.3243 105.296C25.1004 105.313 24.9301 105.54 24.9447 105.808C24.9861 106.621 25.0615 107.446 25.1759 108.259C25.2075 108.495 25.3803 108.664 25.575 108.664C25.5944 108.664 25.6188 108.661 25.6407 108.658Z" fill="#18181B"/>
<path d="M26.0178 112.237C26.0762 112.438 26.2344 112.563 26.3999 112.563C26.4437 112.563 26.4875 112.554 26.5313 112.537C26.743 112.452 26.8549 112.176 26.7819 111.925C26.5678 111.173 26.3829 110.407 26.2344 109.649C26.1833 109.387 25.9643 109.227 25.7477 109.288C25.5312 109.349 25.3949 109.611 25.4484 109.871C25.6042 110.66 25.794 111.456 26.0178 112.237Z" fill="#18181B"/>
<path d="M31.6245 97.381C31.7972 97.381 31.9578 97.244 32.0089 97.0371C32.0308 96.9555 32.0552 96.8739 32.0844 96.7982C32.172 96.5505 32.0771 96.2678 31.8702 96.1629C31.6658 96.0551 31.4273 96.1717 31.3397 96.4164C31.3008 96.5272 31.2667 96.6437 31.2351 96.7574C31.1718 97.0138 31.2935 97.2848 31.5076 97.3606C31.5466 97.3752 31.5855 97.381 31.6245 97.381Z" fill="#18181B"/>
<path d="M30.6096 90.3931C30.6948 90.3931 30.78 90.361 30.853 90.294C31.3956 89.8073 31.9529 89.4285 32.5077 89.1692C32.7145 89.073 32.8167 88.7933 32.7364 88.5427C32.6561 88.2979 32.4225 88.1726 32.2133 88.2687C31.5927 88.5601 30.9722 88.9798 30.3688 89.5218C30.1887 89.682 30.1522 89.988 30.286 90.2007C30.3663 90.326 30.488 90.3931 30.6096 90.3931Z" fill="#18181B"/>
<path d="M28.0497 93.1965C28.1203 93.2577 28.203 93.2868 28.2858 93.2868C28.4099 93.2868 28.534 93.2198 28.6118 93.0857C29.0061 92.4359 29.4319 91.8356 29.8772 91.3082C30.0354 91.1217 30.0378 90.8128 29.8796 90.6263C29.7239 90.434 29.4684 90.434 29.3103 90.6205C28.8309 91.1858 28.3783 91.824 27.9597 92.5204C27.8283 92.739 27.8672 93.0391 28.0497 93.1965Z" fill="#18181B"/>
<path d="M27.3707 116.002C27.4413 116.168 27.5824 116.264 27.7285 116.264C27.7917 116.264 27.855 116.244 27.9134 116.209C28.1105 116.083 28.1883 115.792 28.0861 115.556C27.7771 114.848 27.4972 114.122 27.249 113.402C27.1639 113.158 26.9278 113.038 26.7234 113.14C26.5166 113.242 26.4168 113.525 26.502 113.772C26.7599 114.518 27.0519 115.267 27.3707 116.002Z" fill="#18181B"/>
<path d="M29.1447 119.496C29.2226 119.63 29.3467 119.703 29.4757 119.703C29.5535 119.703 29.6363 119.673 29.7044 119.615C29.8893 119.461 29.9331 119.161 29.8042 118.942C29.4221 118.283 29.0596 117.61 28.7286 116.94C28.6167 116.713 28.3684 116.634 28.1762 116.771C27.984 116.908 27.9207 117.202 28.0327 117.432C28.3734 118.126 28.7481 118.82 29.1447 119.496Z" fill="#18181B"/>
<path d="M29.9525 120.81C30.3613 121.445 30.7994 122.08 31.2569 122.698C31.3372 122.806 31.4466 122.861 31.5586 122.861C31.6535 122.861 31.7508 122.823 31.8262 122.742C31.9941 122.564 32.0088 122.258 31.8603 122.057C31.4174 121.457 30.9892 120.836 30.5901 120.221C30.4538 120.011 30.2007 119.971 30.0255 120.134C29.8479 120.297 29.8162 120.6 29.9525 120.81Z" fill="#18181B"/>
<path d="M39.0413 99.5869C39.1824 99.3771 39.1508 99.074 38.978 98.9079C38.8028 98.7418 38.5473 98.7739 38.4111 98.9837C37.9925 99.6131 37.5229 100.103 37.0167 100.441C36.822 100.569 36.7515 100.863 36.861 101.099C36.934 101.26 37.0727 101.347 37.2138 101.347C37.2795 101.347 37.3476 101.327 37.4109 101.286C38.0071 100.887 38.5595 100.315 39.0413 99.5869Z" fill="#18181B"/>
<path d="M39.2701 98.363C39.3261 98.395 39.3869 98.4125 39.4453 98.4125C39.5962 98.4125 39.7398 98.3105 39.8103 98.1415C40.1316 97.3518 40.3311 96.5184 40.3992 95.6617C40.4211 95.3936 40.2581 95.1576 40.0366 95.1342C39.8128 95.108 39.6157 95.3033 39.5962 95.5684C39.5378 96.3086 39.365 97.0313 39.0827 97.7132C38.9854 97.955 39.0681 98.2435 39.2701 98.363Z" fill="#18181B"/>
<path d="M38.9561 91.9667C39.2651 92.6311 39.4671 93.3422 39.5596 94.0794C39.5912 94.3184 39.764 94.4903 39.9611 94.4903C39.9806 94.4903 40.0001 94.4903 40.022 94.4874C40.241 94.4466 40.3943 94.1989 40.3602 93.9337C40.2507 93.0828 40.0171 92.2611 39.6643 91.4976C39.5548 91.2645 39.3089 91.1799 39.1143 91.3111C38.9196 91.4393 38.849 91.7336 38.9561 91.9667Z" fill="#18181B"/>
<path d="M33.7147 88.7992C34.3474 88.7001 34.9801 88.7321 35.5787 88.8953C35.6079 88.9041 35.6371 88.907 35.6663 88.907C35.8512 88.907 36.0191 88.7555 36.0605 88.5311C36.1116 88.2688 35.9729 88.0095 35.7563 87.9512C35.0652 87.7618 34.3352 87.7268 33.6076 87.8404C33.3862 87.8754 33.2304 88.1202 33.2596 88.3854C33.2888 88.6476 33.4933 88.837 33.7147 88.7992Z" fill="#18181B"/>
<path d="M35.1747 125.971C35.0068 125.796 34.7513 125.816 34.6053 126.017C34.4593 126.221 34.4763 126.527 34.6467 126.702C35.1504 127.224 35.6784 127.748 36.2186 128.252C36.2916 128.325 36.3793 128.357 36.4669 128.357C36.5861 128.357 36.7053 128.293 36.7856 128.174C36.9219 127.964 36.8927 127.658 36.7175 127.495C36.1894 126.996 35.6687 126.484 35.1747 125.971Z" fill="#18181B"/>
<path d="M32.7631 123.229C32.6074 123.036 32.3519 123.03 32.1913 123.214C32.0307 123.4 32.0258 123.706 32.1791 123.899C32.6414 124.476 33.1306 125.053 33.6343 125.612C33.7122 125.7 33.8095 125.743 33.9093 125.743C34.0164 125.743 34.1259 125.688 34.2037 125.589C34.357 125.394 34.3473 125.088 34.1842 124.904C33.6927 124.356 33.2133 123.791 32.7631 123.229Z" fill="#18181B"/>
<path d="M36.7467 89.3995C37.3039 89.7375 37.8028 90.1921 38.2286 90.7545C38.309 90.8565 38.4184 90.9089 38.5279 90.9089C38.6253 90.9089 38.7226 90.8681 38.798 90.7836C38.9635 90.603 38.9757 90.297 38.8248 90.0988C38.3333 89.4548 37.7565 88.9274 37.1141 88.5369C36.9146 88.4174 36.6712 88.5107 36.5715 88.7496C36.4693 88.9886 36.5496 89.28 36.7467 89.3995Z" fill="#18181B"/>
<path d="M35.8828 100.927C35.2915 101.05 34.6758 100.986 34.0967 100.741C33.885 100.653 33.6563 100.785 33.5808 101.038C33.5078 101.289 33.6173 101.563 33.829 101.653C34.3035 101.854 34.7951 101.953 35.2915 101.953C35.5348 101.953 35.7806 101.93 36.0215 101.88C36.2405 101.834 36.3889 101.583 36.35 101.321C36.3111 101.056 36.1043 100.881 35.8828 100.927Z" fill="#18181B"/>
<path d="M32.021 98.3455C31.9578 98.0891 31.7315 97.9463 31.5173 98.0221C31.3056 98.0978 31.1815 98.3659 31.2472 98.6224C31.4492 99.4354 31.9091 100.211 32.5369 100.805C32.6124 100.875 32.7 100.907 32.7876 100.907C32.9068 100.907 33.026 100.843 33.1039 100.723C33.2426 100.514 33.2134 100.211 33.0382 100.044C32.5369 99.5694 32.1743 98.9691 32.021 98.3455Z" fill="#18181B"/>
<path d="M80.2974 132.151C79.6793 132.475 79.0637 132.798 78.448 133.116C78.2436 133.221 78.1487 133.506 78.2388 133.754C78.302 133.935 78.4529 134.045 78.6086 134.045C78.6622 134.045 78.7157 134.031 78.7668 134.005C79.3873 133.687 80.003 133.364 80.6235 133.034C80.8255 132.929 80.9204 132.641 80.8279 132.399C80.7379 132.154 80.4994 132.044 80.2974 132.151Z" fill="#18181B"/>
<path d="M83.3757 130.519C82.8258 130.808 82.2759 131.099 81.7283 131.394L81.5288 131.499C81.3244 131.609 81.2319 131.892 81.3219 132.137C81.3876 132.317 81.5361 132.425 81.6918 132.425C81.7454 132.425 81.8013 132.411 81.8549 132.381L82.0544 132.277C82.6019 131.985 83.1519 131.694 83.7018 131.405C83.9062 131.295 83.9963 131.012 83.9087 130.767C83.8186 130.522 83.5801 130.412 83.3757 130.519Z" fill="#18181B"/>
<path d="M77.2119 133.745C76.5549 134.075 75.9466 134.375 75.3504 134.657C75.1436 134.754 75.0413 135.036 75.1241 135.284C75.1873 135.473 75.3382 135.59 75.4988 135.59C75.5475 135.59 75.5986 135.578 75.6472 135.555C76.2483 135.269 76.8615 134.972 77.5258 134.637C77.7302 134.535 77.8276 134.249 77.7424 134.005C77.6548 133.76 77.4188 133.643 77.2119 133.745Z" fill="#18181B"/>
<path d="M74.0995 135.231C73.4547 135.523 72.8196 135.797 72.2112 136.042C71.9995 136.129 71.8875 136.403 71.9581 136.654C72.0141 136.857 72.1722 136.983 72.3401 136.983C72.3839 136.983 72.4278 136.974 72.4716 136.957C73.0872 136.709 73.7296 136.432 74.3842 136.138C74.5935 136.044 74.7006 135.768 74.6203 135.514C74.5424 135.266 74.3088 135.138 74.0995 135.231Z" fill="#18181B"/>
<path d="M92.9438 126.411C92.2771 126.562 91.6054 126.749 90.946 126.967C90.7294 127.04 90.6053 127.305 90.6637 127.565C90.7124 127.777 90.8754 127.92 91.053 127.92C91.0871 127.92 91.1236 127.914 91.1601 127.9C91.7977 127.69 92.4498 127.506 93.0947 127.361C93.3137 127.311 93.4572 127.055 93.4159 126.792C93.3745 126.53 93.1628 126.358 92.9438 126.411Z" fill="#18181B"/>
<path d="M89.6392 127.445C89.1282 127.646 88.6148 127.871 88.1135 128.112C87.9845 128.174 87.8531 128.238 87.7217 128.302C87.5148 128.401 87.4151 128.684 87.4978 128.931C87.5635 129.118 87.7144 129.234 87.875 129.234C87.9237 129.234 87.9748 129.22 88.0259 129.199C88.1548 129.135 88.2838 129.071 88.4152 129.01C88.9019 128.777 89.3983 128.558 89.8923 128.363C90.104 128.279 90.2184 128.005 90.1478 127.751C90.0773 127.498 89.8485 127.361 89.6392 127.445Z" fill="#18181B"/>
<path d="M86.4735 128.92C85.8919 129.208 85.2836 129.52 84.6095 129.873C84.4051 129.977 84.3126 130.263 84.4002 130.508C84.4659 130.691 84.6168 130.799 84.7725 130.799C84.8236 130.799 84.8796 130.785 84.9331 130.758C85.6023 130.409 86.2082 130.1 86.7849 129.808C86.9893 129.706 87.0867 129.424 87.0015 129.176C86.9139 128.931 86.6779 128.815 86.4735 128.92Z" fill="#18181B"/>
<path d="M61.1441 138.594C60.487 138.615 59.813 138.606 59.1535 138.571C58.9296 138.556 58.7423 138.766 58.7326 139.034C58.7228 139.299 58.8956 139.527 59.117 139.538C59.5575 139.562 60.0028 139.57 60.4457 139.57C60.6866 139.57 60.9251 139.57 61.1636 139.562C61.3874 139.556 61.565 139.334 61.5577 139.066C61.5529 138.801 61.3679 138.583 61.1441 138.594Z" fill="#18181B"/>
<path d="M54.5422 137.895C53.9022 137.743 53.2476 137.56 52.6003 137.353C52.3862 137.283 52.1647 137.437 52.1063 137.697C52.0504 137.956 52.1794 138.218 52.3935 138.288C53.0554 138.498 53.7245 138.687 54.384 138.845C54.4108 138.851 54.4375 138.854 54.4643 138.854C54.6541 138.854 54.822 138.696 54.861 138.466C54.9048 138.204 54.7612 137.947 54.5422 137.895Z" fill="#18181B"/>
<path d="M25.5871 100.639C25.6139 100.645 25.6406 100.648 25.6674 100.648C25.8548 100.648 26.0251 100.49 26.0641 100.26C26.193 99.4879 26.3609 98.7185 26.5653 97.9784C26.6335 97.7249 26.5191 97.4509 26.3074 97.3694C26.0957 97.2848 25.867 97.4247 25.7964 97.6753C25.5847 98.4534 25.4071 99.2576 25.2708 100.068C25.227 100.33 25.3681 100.586 25.5871 100.639Z" fill="#18181B"/>
<path d="M57.8297 138.466C57.1702 138.396 56.5059 138.3 55.8513 138.175C55.6323 138.134 55.4255 138.314 55.389 138.58C55.3549 138.842 55.5058 139.09 55.7272 139.13C56.3988 139.256 57.0826 139.358 57.7567 139.428C57.7688 139.431 57.781 139.431 57.7932 139.431C58 139.431 58.1752 139.241 58.1947 138.991C58.2142 138.725 58.0511 138.489 57.8297 138.466Z" fill="#18181B"/>
<path d="M25.3096 104.652C25.3121 104.652 25.312 104.652 25.3145 104.652C25.5359 104.652 25.716 104.439 25.7184 104.174C25.7257 103.384 25.772 102.591 25.8523 101.816C25.879 101.551 25.7209 101.309 25.4994 101.277C25.2804 101.245 25.0784 101.432 25.0492 101.697C24.9665 102.507 24.9203 103.334 24.9105 104.162C24.9081 104.427 25.0858 104.649 25.3096 104.652Z" fill="#18181B"/>
<path d="M67.724 137.58C67.0694 137.761 66.4099 137.918 65.7675 138.049C65.5485 138.096 65.4 138.347 65.4365 138.609C65.4706 138.845 65.641 139.011 65.8356 139.011C65.8575 139.011 65.8818 139.008 65.9037 139.002C66.5608 138.868 67.2348 138.708 67.904 138.524C68.123 138.463 68.2569 138.204 68.2082 137.944C68.1595 137.685 67.943 137.522 67.724 137.58Z" fill="#18181B"/>
<path d="M64.4535 138.288C63.7916 138.39 63.1248 138.472 62.4727 138.524C62.2488 138.542 62.0809 138.772 62.0955 139.037C62.1101 139.294 62.2877 139.489 62.4994 139.489C62.5067 139.489 62.5165 139.489 62.5238 139.489C63.1954 139.436 63.8816 139.355 64.5581 139.247C64.7796 139.212 64.9353 138.97 64.9085 138.705C64.8769 138.44 64.6749 138.253 64.4535 138.288Z" fill="#18181B"/>
<path d="M70.9409 136.537C70.2911 136.779 69.6439 137 69.0185 137.198C68.8019 137.268 68.6729 137.534 68.7289 137.79C68.7776 138.009 68.9406 138.151 69.1207 138.151C69.1548 138.151 69.1888 138.145 69.2229 138.134C69.8629 137.933 70.5199 137.705 71.1794 137.461C71.3935 137.382 71.5127 137.111 71.447 136.855C71.3813 136.601 71.155 136.458 70.9409 136.537Z" fill="#18181B"/>
<path d="M164.053 45.1702C164.128 45.1702 164.204 45.1439 164.272 45.0915C164.459 44.9458 164.515 44.6486 164.393 44.4242C164.024 43.7394 163.581 43.0808 163.079 42.4688C162.921 42.2765 162.666 42.2736 162.508 42.463C162.347 42.6495 162.345 42.9555 162.503 43.1449C162.968 43.7131 163.374 44.3193 163.712 44.9487C163.79 45.0915 163.921 45.1702 164.053 45.1702Z" fill="#18181B"/>
<path d="M164.325 46.295C164.588 47.0089 164.773 47.7462 164.868 48.4834C164.9 48.7224 165.072 48.8943 165.267 48.8943C165.289 48.8943 165.308 48.8914 165.33 48.8885C165.552 48.8448 165.703 48.6 165.669 48.3348C165.559 47.513 165.357 46.6942 165.063 45.9045C164.973 45.6597 164.732 45.549 164.53 45.6597C164.325 45.7675 164.233 46.0531 164.325 46.295Z" fill="#18181B"/>
<path d="M165.365 49.5325C165.143 49.5296 164.956 49.7307 164.946 49.9988C164.922 50.7797 164.798 51.5228 164.579 52.2018C164.498 52.4524 164.603 52.7321 164.81 52.8283C164.858 52.8487 164.907 52.8604 164.956 52.8604C165.119 52.8604 165.27 52.7438 165.333 52.5515C165.584 51.7705 165.727 50.9225 165.754 50.0337C165.761 49.7686 165.588 49.5442 165.365 49.5325Z" fill="#18181B"/>
<path d="M164.547 53.3935C164.364 53.242 164.114 53.2944 163.985 53.513C163.615 54.1482 163.179 54.7048 162.69 55.1711C162.517 55.3372 162.488 55.6402 162.624 55.8501C162.705 55.9695 162.822 56.0336 162.943 56.0336C163.028 56.0336 163.118 55.9987 163.191 55.9287C163.744 55.4071 164.233 54.7806 164.649 54.0667C164.776 53.8481 164.729 53.5451 164.547 53.3935Z" fill="#18181B"/>
<path d="M161.629 55.9841C161.057 56.3251 160.456 56.5524 159.833 56.6602C159.612 56.6981 159.459 56.9429 159.49 57.208C159.519 57.4499 159.695 57.6218 159.889 57.6218C159.909 57.6218 159.928 57.6189 159.948 57.616C160.656 57.4965 161.342 57.2372 161.989 56.8496C162.189 56.7301 162.269 56.4387 162.169 56.1998C162.07 55.9608 161.829 55.8647 161.629 55.9841Z" fill="#18181B"/>
<path d="M159.794 47.0031C159.863 47.0031 159.933 46.9798 159.996 46.9361C160.189 46.802 160.254 46.5077 160.142 46.2746C159.894 45.7617 159.549 45.3509 159.118 45.0565C158.923 44.9225 158.677 45.0041 158.566 45.2372C158.456 45.4674 158.522 45.7617 158.716 45.8958C159.023 46.1056 159.269 46.397 159.444 46.7583C159.519 46.9157 159.656 47.0031 159.794 47.0031Z" fill="#18181B"/>
<path d="M155.312 45.7442C155.383 45.9161 155.526 46.0181 155.677 46.0181C155.735 46.0181 155.796 46.0036 155.852 45.9686C156.419 45.6422 157.03 45.4878 157.609 45.5257C157.833 45.5431 158.023 45.3362 158.035 45.0711C158.047 44.803 157.877 44.5757 157.655 44.5611C156.945 44.5145 156.19 44.701 155.502 45.1002C155.3 45.2139 155.215 45.5023 155.312 45.7442Z" fill="#18181B"/>
<path d="M158.772 40.0356C158.828 40.0677 158.887 40.0823 158.948 40.0823C159.096 40.0823 159.24 39.9832 159.31 39.8084C159.407 39.5694 159.325 39.2809 159.123 39.1644C158.529 38.8176 157.889 38.497 157.225 38.2086C157.015 38.1182 156.784 38.2464 156.709 38.5C156.633 38.7506 156.74 39.0274 156.95 39.1177C157.587 39.3946 158.201 39.7034 158.772 40.0356Z" fill="#18181B"/>
<path d="M152.604 36.7719C151.956 36.6378 151.275 36.5184 150.586 36.4222C150.365 36.3931 150.163 36.5825 150.136 36.8477C150.112 37.1128 150.27 37.3518 150.491 37.3838C151.168 37.48 151.832 37.5937 152.467 37.7248C152.489 37.7306 152.514 37.7335 152.535 37.7335C152.73 37.7335 152.898 37.5674 152.935 37.3314C152.973 37.0691 152.825 36.8185 152.604 36.7719Z" fill="#18181B"/>
<path d="M155.925 37.6956C155.293 37.4713 154.626 37.2644 153.942 37.0866C153.723 37.0283 153.509 37.1944 153.463 37.4567C153.414 37.716 153.553 37.9754 153.772 38.0308C154.434 38.2056 155.083 38.4037 155.694 38.6223C155.733 38.6369 155.772 38.6427 155.811 38.6427C155.984 38.6427 156.144 38.5087 156.198 38.2988C156.261 38.0424 156.139 37.7714 155.925 37.6956Z" fill="#18181B"/>
<path d="M154.001 52.2746C153.971 52.1726 153.945 52.0677 153.92 51.9599C153.769 51.3334 153.691 50.7272 153.691 50.1503L153.694 50.0628C153.696 49.7947 153.521 49.5733 153.295 49.5704C153.295 49.5704 153.292 49.5704 153.29 49.5704C153.068 49.5704 152.888 49.7802 152.886 50.0453C152.886 50.0803 152.886 50.1153 152.886 50.1503C152.886 50.8176 152.971 51.514 153.144 52.228C153.171 52.3474 153.202 52.4669 153.234 52.5806C153.29 52.7816 153.448 52.9099 153.618 52.9099C153.66 52.9099 153.704 52.904 153.745 52.8865C153.957 52.802 154.071 52.5281 154.001 52.2746Z" fill="#18181B"/>
<path d="M161.539 42.1017C161.615 42.1774 161.705 42.2095 161.792 42.2095C161.912 42.2095 162.028 42.1483 162.106 42.0317C162.247 41.8219 162.221 41.5188 162.048 41.3498C161.527 40.8486 160.953 40.3765 160.337 39.9424C160.145 39.8054 159.897 39.8812 159.785 40.1114C159.67 40.3416 159.736 40.6388 159.928 40.7758C160.51 41.1867 161.053 41.6325 161.539 42.1017Z" fill="#18181B"/>
<path d="M158.58 56.7097C157.945 56.6456 157.339 56.4591 156.777 56.1415C156.575 56.0307 156.334 56.1356 156.239 56.3775C156.144 56.6194 156.232 56.9079 156.434 57.0215C157.086 57.3829 157.784 57.6014 158.517 57.6713C158.527 57.6743 158.539 57.6743 158.548 57.6743C158.758 57.6743 158.935 57.4819 158.95 57.2284C158.967 56.9632 158.804 56.7301 158.58 56.7097Z" fill="#18181B"/>
<path d="M153.38 48.9293C153.421 48.9468 153.465 48.9526 153.506 48.9526C153.677 48.9526 153.835 48.8244 153.891 48.6204C154.081 47.921 154.404 47.3091 154.852 46.7962C155.013 46.6126 155.02 46.3066 154.867 46.1143C154.711 45.9191 154.455 45.9132 154.295 46.0968C153.75 46.7175 153.356 47.4664 153.122 48.3202C153.054 48.5738 153.168 48.8448 153.38 48.9293Z" fill="#18181B"/>
<path d="M155.723 55.3518C155.246 54.8855 154.838 54.3144 154.516 53.6529C154.404 53.4198 154.156 53.344 153.964 53.4781C153.772 53.6121 153.706 53.9093 153.82 54.1395C154.19 54.903 154.66 55.5616 155.212 56.1036C155.288 56.1765 155.378 56.2114 155.468 56.2114C155.585 56.2114 155.702 56.1502 155.782 56.0337C155.923 55.8268 155.896 55.5208 155.723 55.3518Z" fill="#18181B"/>
</svg>
